<?xml version="1.0" encoding="UTF-8" standalone="no"?>
<svg
   width="1080"
   zoomAndPan="magnify"
   viewBox="0 0 810 809.999993"
   height="1080"
   preserveAspectRatio="xMidYMid meet"
   version="1.0"
   id="svg51"
   sodipodi:docname="icon-IG.svg"
   inkscape:version="1.1.1 (3bf5ae0d25, 2021-09-20)"
   xmlns:inkscape="http://www.inkscape.org/namespaces/inkscape"
   xmlns:sodipodi="http://sodipodi.sourceforge.net/DTD/sodipodi-0.dtd"
   xmlns="http://www.w3.org/2000/svg"
   xmlns:svg="http://www.w3.org/2000/svg">
  <sodipodi:namedview
     id="namedview53"
     pagecolor="#ffffff"
     bordercolor="#666666"
     borderopacity="1.0"
     inkscape:pageshadow="2"
     inkscape:pageopacity="0.0"
     inkscape:pagecheckerboard="0"
     showgrid="false"
     inkscape:zoom="0.2710576"
     inkscape:cx="359.70214"
     inkscape:cy="953.67184"
     inkscape:window-width="1920"
     inkscape:window-height="991"
     inkscape:window-x="-9"
     inkscape:window-y="-9"
     inkscape:window-maximized="1"
     inkscape:current-layer="svg51" />
  <defs
     id="defs23">
    <clipPath
       id="17e6240696">
      <path
         d="M 0.5 0.5 L 729.5 0.5 L 729.5 729.5 L 0.5 729.5 Z M 0.5 0.5 "
         clip-rule="nonzero"
         id="path2" />
    </clipPath>
    <clipPath
       id="30902f77bd">
      <path
         d="M 365 0.5 C 163.691406 0.5 0.5 163.691406 0.5 365 C 0.5 566.308594 163.691406 729.5 365 729.5 C 566.308594 729.5 729.5 566.308594 729.5 365 C 729.5 163.691406 566.308594 0.5 365 0.5 Z M 365 0.5 "
         clip-rule="nonzero"
         id="path5" />
    </clipPath>
    <clipPath
       id="8fb0ae09e3">
      <path
         d="M 0.5 0.5 L 729.5 0.5 L 729.5 729.5 L 0.5 729.5 Z M 0.5 0.5 "
         clip-rule="nonzero"
         id="path8" />
    </clipPath>
    <clipPath
       id="30497d1781">
      <path
         d="M 365 0.5 C 163.691406 0.5 0.5 163.691406 0.5 365 C 0.5 566.308594 163.691406 729.5 365 729.5 C 566.308594 729.5 729.5 566.308594 729.5 365 C 729.5 163.691406 566.308594 0.5 365 0.5 Z M 365 0.5 "
         clip-rule="nonzero"
         id="path11" />
    </clipPath>
    <clipPath
       id="2b729a96f1">
      <rect
         x="0"
         width="730"
         y="0"
         height="730"
         id="rect14" />
    </clipPath>
    <clipPath
       id="35bc0f5953">
      <path
         d="M 141.945312 141.945312 L 588 141.945312 L 588 588 L 141.945312 588 Z M 141.945312 141.945312 "
         clip-rule="nonzero"
         id="path17" />
    </clipPath>
    <clipPath
       id="b2ff424e68">
      <rect
         x="0"
         width="730"
         y="0"
         height="730"
         id="rect20" />
    </clipPath>
  </defs>
  <g
     transform="matrix(1, 0, 0, 1, 40, 40)"
     id="g49">
    <g
       clip-path="url(#b2ff424e68)"
       id="g47">
      <g
         clip-path="url(#17e6240696)"
         id="g41">
        <g
           clip-path="url(#30902f77bd)"
           id="g39">
          <g
             transform="matrix(1, 0, 0, 1, 0, 0.000000000000042633)"
             id="g37">
            <g
               clip-path="url(#2b729a96f1)"
               id="g35">
              <g
                 clip-path="url(#8fb0ae09e3)"
                 id="g33">
                <g
                   clip-path="url(#30497d1781)"
                   id="g31">
                  <path
                     fill="#f32927"
                     d="M 0.5 0.5 L 729.5 0.5 L 729.5 729.5 L 0.5 729.5 Z M 0.5 0.5 "
                     fill-opacity="1"
                     fill-rule="nonzero"
                     id="path29" />
                </g>
              </g>
            </g>
          </g>
        </g>
      </g>
      <g
         clip-path="url(#35bc0f5953)"
         id="g45">
        <path
           fill="#ffffff"
           d="M 272.550781 143.480469 C 248.832031 144.59375 232.632812 148.398438 218.46875 153.945312 C 203.804688 159.660156 191.386719 167.308594 179.03125 179.726562 C 166.65625 192.140625 159.050781 204.582031 153.398438 219.269531 C 147.914062 233.472656 144.195312 249.671875 143.144531 273.414062 C 142.09375 297.175781 141.863281 304.761719 141.96875 365.316406 C 142.074219 425.851562 142.34375 433.457031 143.480469 457.242188 C 144.613281 480.960938 148.398438 497.140625 153.945312 511.324219 C 159.660156 525.988281 167.308594 538.386719 179.726562 550.761719 C 192.140625 563.136719 204.582031 570.722656 219.269531 576.394531 C 233.449219 581.878906 249.671875 585.621094 273.394531 586.648438 C 297.175781 587.699219 304.761719 587.929688 365.296875 587.804688 C 425.851562 587.699219 433.433594 587.425781 457.21875 586.292969 C 480.941406 585.15625 497.121094 581.355469 511.304688 575.828125 C 525.96875 570.09375 538.386719 562.464844 550.742188 550.046875 C 563.09375 537.628906 570.703125 525.191406 576.375 510.503906 C 581.859375 496.320312 585.597656 480.101562 586.628906 456.402344 C 587.65625 432.617188 587.910156 425.011719 587.804688 364.476562 C 587.699219 303.941406 587.40625 296.359375 586.292969 272.574219 C 585.15625 248.832031 581.375 232.652344 575.828125 218.46875 C 570.09375 203.804688 562.464844 191.40625 550.046875 179.03125 C 537.628906 166.675781 525.191406 159.050781 510.503906 153.398438 C 496.320312 147.914062 480.101562 144.171875 456.378906 143.144531 C 432.59375 142.09375 424.988281 141.863281 364.457031 141.96875 C 303.921875 142.074219 296.335938 142.34375 272.550781 143.480469 M 275.15625 546.496094 C 253.433594 545.550781 241.625 541.9375 233.746094 538.910156 C 223.324219 534.878906 215.90625 530.046875 208.070312 522.292969 C 200.253906 514.496094 195.421875 507.078125 191.34375 496.699219 C 188.296875 488.84375 184.621094 477.054688 183.589844 455.308594 C 182.476562 431.816406 182.226562 424.757812 182.121094 365.234375 C 182.015625 305.730469 182.226562 298.667969 183.253906 275.15625 C 184.179688 253.433594 187.8125 241.625 190.839844 233.765625 C 194.875 223.34375 199.683594 215.925781 207.460938 208.089844 C 215.253906 200.273438 222.671875 195.441406 233.070312 191.363281 C 240.929688 188.296875 252.71875 184.640625 274.441406 183.613281 C 297.953125 182.5 304.992188 182.265625 364.519531 182.140625 C 424.042969 182.015625 431.101562 182.226562 454.613281 183.277344 C 476.339844 184.222656 488.148438 187.8125 496.007812 190.859375 C 506.429688 194.894531 513.867188 199.683594 521.683594 207.480469 C 529.5 215.277344 534.351562 222.671875 538.40625 233.09375 C 541.476562 240.929688 545.132812 252.738281 546.160156 274.441406 C 547.273438 297.953125 547.527344 305.015625 547.632812 364.519531 C 547.738281 424.042969 547.527344 431.101562 546.496094 454.59375 C 545.550781 476.320312 541.9375 488.148438 538.910156 496.007812 C 534.878906 506.40625 530.066406 513.84375 522.269531 521.660156 C 514.476562 529.457031 507.078125 534.308594 496.65625 538.386719 C 488.820312 541.453125 477.011719 545.109375 455.308594 546.140625 C 431.796875 547.253906 424.757812 547.503906 365.210938 547.609375 C 305.707031 547.714844 298.648438 547.503906 275.136719 546.476562 M 456.90625 245.722656 C 456.925781 260.492188 468.945312 272.445312 483.695312 272.40625 C 498.464844 272.382812 510.421875 260.386719 510.398438 245.617188 C 510.378906 230.84375 498.359375 218.890625 483.589844 218.910156 C 468.816406 218.929688 456.863281 230.949219 456.882812 245.699219 M 250.40625 365.105469 C 250.53125 428.328125 301.882812 479.472656 365.085938 479.34375 C 428.308594 479.21875 479.472656 427.886719 479.34375 364.664062 C 479.21875 301.464844 427.867188 250.300781 364.644531 250.40625 C 301.441406 250.53125 250.28125 301.882812 250.40625 365.105469 M 290.558594 365.023438 C 290.496094 323.988281 323.695312 290.644531 364.730469 290.578125 C 405.761719 290.496094 439.109375 323.695312 439.191406 364.75 C 439.277344 405.785156 406.058594 439.128906 365.023438 439.191406 C 323.988281 439.277344 290.644531 406.058594 290.578125 365.023438 "
           fill-opacity="1"
           fill-rule="nonzero"
           id="path43" />
      </g>
    </g>
  </g>
</svg>
