<svg xmlns="http://www.w3.org/2000/svg" xmlns:xlink="http://www.w3.org/1999/xlink" width="1080" zoomAndPan="magnify" viewBox="0 0 810 809.999993" height="1080" preserveAspectRatio="xMidYMid meet" version="1.0"><defs><clipPath id="1aea25560d"><path d="M 37.097656 37.097656 L 772.847656 37.097656 L 772.847656 772.847656 L 37.097656 772.847656 Z M 37.097656 37.097656 " clip-rule="nonzero"/></clipPath></defs><rect x="-81" width="972" fill="#ffffff" y="-80.999999" height="971.999992" fill-opacity="1"/><rect x="-81" width="972" fill="#ffffff" y="-80.999999" height="971.999992" fill-opacity="1"/><g clip-path="url(#1aea25560d)"><path fill="#f30f0d" d="M 404.878906 37.003906 C 608.0625 37.003906 772.75 201.691406 772.75 404.878906 C 772.75 608.0625 608.0625 772.75 404.878906 772.75 C 201.691406 772.75 37.003906 608.0625 37.003906 404.878906 C 37.003906 201.691406 201.691406 37.003906 404.878906 37.003906 Z M 404.585938 194.945312 C 460.5625 194.945312 465.570312 274.546875 471.203125 298.75 L 339.519531 298.75 C 339.519531 252.664062 360.433594 194.945312 404.585938 194.945312 Z M 451.472656 415.105469 L 464.117188 403.207031 C 448.183594 384.46875 430.703125 377.140625 407.148438 377.140625 C 368.171875 377.140625 352.214844 399.414062 352.214844 422.964844 C 352.214844 482.46875 446.902344 459.933594 446.902344 509.816406 C 446.902344 527.035156 432.464844 538.664062 406.132812 538.664062 C 384.371094 538.664062 369.164062 529.574219 357.53125 514.628906 L 344.113281 527.035156 C 360.820312 546.523438 380.816406 554.382812 405.652344 554.382812 C 439.816406 554.382812 465.640625 537.671875 465.640625 506.53125 C 465.640625 446.25 370.953125 465.253906 370.953125 420.183594 C 370.953125 404.222656 382.339844 392.835938 407.65625 392.835938 C 426.398438 392.835938 440.589844 400.667969 451.472656 415.105469 Z M 313.1875 298.75 L 217.121094 298.75 C 200.074219 298.75 193.421875 310.574219 195.648438 329.507812 C 197.414062 344.425781 198.792969 364.085938 200 379.390625 L 204.738281 453.671875 C 205.078125 460.441406 205.949219 459.304688 206.285156 466.078125 L 214 579.191406 C 214.21875 610.480469 231.289062 639.59375 262.070312 639.59375 L 545.582031 639.59375 C 600.902344 639.59375 595.320312 571.308594 599.574219 532.449219 L 613.769531 329.703125 C 614.226562 321.046875 615.945312 316.789062 611.808594 308.421875 C 608.90625 302.523438 602.015625 298.75 593.601562 298.75 L 495.988281 298.75 C 495.988281 246.085938 466.125 170.160156 409.230469 170.160156 L 396.847656 170.160156 C 368.800781 170.160156 344.546875 194.703125 334.851562 213.515625 C 321.769531 238.953125 313.1875 267.679688 313.1875 298.75 Z M 313.1875 298.75 " fill-opacity="1" fill-rule="evenodd"/></g></svg>