<svg xmlns="http://www.w3.org/2000/svg" xmlns:xlink="http://www.w3.org/1999/xlink" width="1080" zoomAndPan="magnify" viewBox="0 0 810 809.999993" height="1080" preserveAspectRatio="xMidYMid meet" version="1.0"><defs><clipPath id="6b696ccc7e"><path d="M 35.433594 53 L 774.933594 53 L 774.933594 757 L 35.433594 757 Z M 35.433594 53 " clip-rule="nonzero"/></clipPath></defs><rect x="-81" width="972" fill="#ffffff" y="-80.999999" height="971.999992" fill-opacity="1"/><rect x="-81" width="972" fill="#ffffff" y="-80.999999" height="971.999992" fill-opacity="1"/><g clip-path="url(#6b696ccc7e)"><path fill="#f30f0d" d="M 113.121094 333.304688 L 162.035156 333.304688 C 172.695312 333.304688 181.546875 341.535156 182.449219 352.050781 C 204.894531 350.878906 206.242188 344.3125 210.585938 323.40625 C 213.964844 307.039062 216.613281 290.128906 231.09375 281.722656 C 250.207031 270.621094 272.824219 286.132812 274.617188 313.015625 C 275.15625 321.105469 273.667969 328.386719 272.460938 335.761719 L 305.007812 335.761719 C 335.128906 335.761719 333.191406 395.972656 329.878906 420.507812 C 326.199219 448.074219 315.667969 471.3125 298.410156 471.3125 L 242.292969 471.3125 C 210.730469 471.3125 212.394531 458.589844 187.714844 458.589844 L 182.496094 458.589844 C 182.003906 469.375 172.917969 478.097656 162.035156 478.097656 L 113.121094 478.097656 C 101.875 478.097656 92.613281 468.835938 92.613281 457.589844 L 92.613281 353.78125 C 92.613281 342.566406 101.875 333.304688 113.121094 333.304688 Z M 182.542969 377.492188 L 182.542969 433.195312 C 202.734375 433.195312 208.304688 434.863281 220.722656 440.890625 C 225.941406 443.410156 231.113281 445.964844 242.308594 445.964844 L 298.425781 445.964844 C 300.21875 445.964844 302.738281 432.785156 304.847656 417.144531 C 306.640625 403.789062 307.054688 388.816406 305.4375 375.683594 C 304.40625 367.277344 305.976562 361.125 305.023438 361.125 L 258.804688 361.125 C 251.792969 361.125 246.210938 355.683594 246.085938 348.402344 C 245.765625 341.472656 246.84375 335.269531 247.875 329.019531 C 249.226562 321.25 251.285156 308.925781 245.132812 304.070312 L 243.832031 303.628906 C 241.800781 304.800781 239.835938 308.210938 238.390625 314.460938 C 237.3125 319.265625 236.328125 324.167969 235.378906 328.578125 C 227.636719 365.945312 225.480469 376.320312 182.542969 377.492188 Z M 157.136719 358.648438 L 118.023438 358.648438 L 118.023438 452.707031 L 157.136719 452.707031 Z M 212.222656 212.710938 C 262.359375 212.710938 307.671875 233.570312 339.902344 267.242188 L 370.023438 240.582031 C 344.34375 190.679688 354.191406 130.203125 393.542969 90.867188 C 443.808594 40.605469 525.285156 40.605469 575.550781 90.867188 C 607.78125 123.144531 620.863281 170.21875 608.777344 215.3125 L 644.261719 233.03125 C 655.316406 238.519531 663.054688 248.003906 666.289062 260.011719 L 773.527344 660.152344 C 777.792969 676.25 768.183594 693.507812 751.671875 697.28125 L 630.460938 725.152344 C 630.460938 734.269531 627.8125 741.648438 621.609375 747.847656 C 616.121094 753.335938 608.574219 756.699219 600.214844 756.699219 L 340.886719 756.699219 C 324.246094 756.699219 310.671875 743.121094 310.671875 726.4375 L 310.671875 536.339844 C 240.484375 583.464844 146.792969 574.105469 87.171875 514.484375 C 18.160156 445.472656 18.160156 333.527344 87.171875 264.46875 C 119.195312 232.492188 163.382812 212.710938 212.222656 212.710938 Z M 356.082031 286.71875 C 406.710938 357.539062 398.082031 454.734375 336.03125 515.660156 L 336.03125 726.484375 C 336.03125 729.179688 338.238281 731.382812 340.886719 731.382812 L 600.167969 731.382812 C 602.816406 731.382812 605.066406 729.179688 605.066406 726.484375 L 605.066406 312.207031 C 605.066406 306.992188 603.226562 302.851562 599.355469 299.441406 L 477.957031 191.855469 C 473.691406 188.078125 467.441406 188.078125 463.160156 191.855469 L 402.871094 245.273438 C 409.4375 253.679688 417.304688 261.105469 426.121094 267.132812 C 442.492188 237.773438 482.539062 232.015625 506.476562 255.933594 C 526.300781 275.761719 526.300781 307.910156 506.476562 327.785156 C 486.648438 347.609375 454.449219 347.609375 434.625 327.785156 C 425.679688 318.839844 420.0625 306.609375 419.746094 293.082031 C 405.996094 285.039062 393.796875 274.460938 383.917969 262.054688 Z M 319.265625 282.40625 C 260.136719 223.277344 164.242188 223.277344 105.128906 282.40625 C 45.996094 341.566406 45.996094 437.429688 105.128906 496.546875 C 164.257812 555.660156 260.152344 555.675781 319.265625 496.546875 C 378.382812 437.414062 378.382812 341.566406 319.265625 282.40625 Z M 423.125 591.109375 C 423.125 584.097656 428.789062 578.390625 435.796875 578.390625 C 442.808594 578.390625 448.472656 584.097656 448.472656 591.109375 C 448.472656 602.257812 473.371094 609.808594 487.585938 599.246094 C 490.691406 596.914062 492.613281 594.027344 492.613281 591.109375 C 492.613281 581.988281 480.480469 579.863281 468.328125 577.707031 C 445.710938 573.664062 423.09375 569.664062 423.09375 539.308594 C 423.09375 520.066406 439.414062 506.269531 457.84375 502.128906 L 457.84375 496.195312 C 457.84375 489.1875 463.507812 483.523438 470.519531 483.523438 C 477.527344 483.523438 483.191406 489.1875 483.191406 496.195312 L 483.191406 502.128906 C 501.621094 506.269531 517.941406 520.066406 517.941406 539.308594 C 517.941406 546.316406 512.28125 551.980469 505.269531 551.980469 C 498.257812 551.980469 492.597656 546.316406 492.597656 539.308594 C 492.597656 528.15625 467.695312 520.558594 453.484375 531.171875 C 450.375 533.46875 448.457031 536.390625 448.457031 539.308594 C 448.457031 548.394531 460.589844 550.550781 472.691406 552.710938 C 495.355469 556.707031 517.957031 560.75 517.957031 591.109375 C 517.957031 610.347656 501.636719 624.148438 483.207031 628.289062 L 483.207031 634.21875 C 483.207031 641.230469 477.542969 646.894531 470.535156 646.894531 C 463.523438 646.894531 457.859375 641.230469 457.859375 634.21875 L 457.859375 628.289062 C 439.445312 624.148438 423.125 610.347656 423.125 591.109375 Z M 470.550781 447.628906 C 535.46875 447.628906 588.128906 500.273438 588.128906 565.207031 C 588.128906 630.128906 535.484375 682.785156 470.550781 682.785156 C 405.628906 682.785156 352.972656 630.144531 352.972656 565.207031 C 352.988281 500.289062 405.628906 447.628906 470.550781 447.628906 Z M 535.753906 500.019531 C 499.734375 464 441.382812 464 405.375 500.019531 C 369.355469 536.039062 369.355469 594.390625 405.375 630.398438 C 441.398438 666.402344 499.75 666.417969 535.753906 630.398438 C 571.757812 594.375 571.757812 536.023438 535.753906 500.019531 Z M 469.167969 284.070312 C 476.101562 285.054688 480.90625 291.492188 479.875 298.410156 C 478.894531 305.339844 472.453125 310.148438 465.539062 309.117188 C 460.003906 308.308594 454.53125 307.132812 449.167969 305.5625 C 462.839844 326.878906 496.023438 317.109375 496.023438 291.84375 C 496.023438 266.035156 461.859375 256.773438 448.726562 278.804688 C 455.277344 281.230469 462.0625 282.992188 469.167969 284.070312 Z M 585.558594 203.71875 C 599.355469 139.734375 550.441406 78.542969 484.539062 78.542969 C 409.769531 78.542969 360.269531 155.375 389.769531 223.085938 L 446.425781 172.917969 C 450.199219 169.585938 454.464844 167.160156 459.019531 165.636719 C 464.015625 161.273438 470.027344 158.4375 476.371094 157.277344 C 483.921875 155.929688 491.882812 156.914062 499.117188 160.511719 Z M 530.265625 204.449219 L 616.136719 280.519531 C 625.496094 288.796875 630.429688 299.804688 630.429688 312.207031 L 630.429688 699.1875 L 745.976562 672.621094 C 748.308594 672.078125 749.65625 669.210938 748.992188 666.734375 L 641.769531 266.527344 C 640.421875 261.5 637.628906 258.074219 632.949219 255.695312 Z M 530.265625 204.449219 " fill-opacity="1" fill-rule="nonzero"/></g></svg>