<?xml version="1.0" encoding="UTF-8" standalone="no"?>
<svg
   width="1080"
   zoomAndPan="magnify"
   viewBox="0 0 810 809.999993"
   height="1080"
   preserveAspectRatio="xMidYMid meet"
   version="1.0"
   id="svg29"
   sodipodi:docname="icon-tiktok.svg"
   inkscape:version="1.1.1 (3bf5ae0d25, 2021-09-20)"
   xmlns:inkscape="http://www.inkscape.org/namespaces/inkscape"
   xmlns:sodipodi="http://sodipodi.sourceforge.net/DTD/sodipodi-0.dtd"
   xmlns="http://www.w3.org/2000/svg"
   xmlns:svg="http://www.w3.org/2000/svg">
  <sodipodi:namedview
     id="namedview31"
     pagecolor="#ffffff"
     bordercolor="#666666"
     borderopacity="1.0"
     inkscape:pageshadow="2"
     inkscape:pageopacity="0.0"
     inkscape:pagecheckerboard="0"
     showgrid="false"
     inkscape:zoom="0.38333333"
     inkscape:cx="413.47826"
     inkscape:cy="520.43479"
     inkscape:window-width="1920"
     inkscape:window-height="991"
     inkscape:window-x="-9"
     inkscape:window-y="-9"
     inkscape:window-maximized="1"
     inkscape:current-layer="svg29" />
  <defs
     id="defs5">
    <clipPath
       id="1c01e90b4d">
      <path
         d="M 29.386719 29.386719 L 780.886719 29.386719 L 780.886719 780.886719 L 29.386719 780.886719 Z M 29.386719 29.386719 "
         clip-rule="nonzero"
         id="path2" />
    </clipPath>
  </defs>
  <g
     clip-path="url(#1c01e90b4d)"
     id="g13">
    <path
       fill="#f30f0d"
       d="M 780.738281 405.0625 C 780.738281 411.210938 780.585938 417.355469 780.285156 423.496094 C 779.984375 429.636719 779.53125 435.765625 778.929688 441.886719 C 778.328125 448.003906 777.574219 454.105469 776.671875 460.183594 C 775.769531 466.265625 774.71875 472.324219 773.519531 478.351562 C 772.320312 484.382812 770.972656 490.378906 769.480469 496.34375 C 767.984375 502.308594 766.347656 508.230469 764.5625 514.117188 C 762.777344 520 760.847656 525.835938 758.777344 531.625 C 756.707031 537.414062 754.496094 543.148438 752.140625 548.828125 C 749.789062 554.507812 747.296875 560.125 744.667969 565.683594 C 742.039062 571.242188 739.277344 576.734375 736.378906 582.15625 C 733.480469 587.578125 730.453125 592.925781 727.289062 598.199219 C 724.128906 603.472656 720.839844 608.664062 717.425781 613.777344 C 714.007812 618.890625 710.46875 623.914062 706.808594 628.851562 C 703.144531 633.789062 699.363281 638.636719 695.464844 643.390625 C 691.5625 648.140625 687.550781 652.796875 683.417969 657.351562 C 679.292969 661.90625 675.054688 666.359375 670.707031 670.707031 C 666.359375 675.054688 661.90625 679.292969 657.351562 683.421875 C 652.796875 687.550781 648.140625 691.5625 643.390625 695.464844 C 638.636719 699.363281 633.789062 703.144531 628.851562 706.808594 C 623.914062 710.472656 618.890625 714.011719 613.777344 717.425781 C 608.664062 720.839844 603.472656 724.128906 598.199219 727.289062 C 592.925781 730.453125 587.578125 733.480469 582.15625 736.378906 C 576.734375 739.277344 571.242188 742.039062 565.683594 744.667969 C 560.125 747.296875 554.507812 749.789062 548.828125 752.140625 C 543.148438 754.496094 537.414062 756.707031 531.625 758.777344 C 525.835938 760.847656 520 762.777344 514.117188 764.5625 C 508.230469 766.347656 502.308594 767.984375 496.34375 769.480469 C 490.378906 770.972656 484.382812 772.320312 478.351562 773.519531 C 472.324219 774.71875 466.265625 775.769531 460.183594 776.671875 C 454.105469 777.574219 448.003906 778.328125 441.886719 778.929688 C 435.765625 779.53125 429.636719 779.984375 423.496094 780.285156 C 417.355469 780.585938 411.210938 780.738281 405.0625 780.738281 C 398.914062 780.738281 392.769531 780.585938 386.628906 780.285156 C 380.488281 779.984375 374.359375 779.53125 368.238281 778.929688 C 362.121094 778.328125 356.019531 777.574219 349.9375 776.671875 C 343.859375 775.769531 337.800781 774.71875 331.773438 773.519531 C 325.742188 772.320312 319.746094 770.972656 313.78125 769.480469 C 307.816406 767.984375 301.894531 766.347656 296.007812 764.5625 C 290.125 762.777344 284.289062 760.847656 278.5 758.777344 C 272.710938 756.707031 266.976562 754.496094 261.296875 752.140625 C 255.617188 749.789062 250 747.296875 244.441406 744.667969 C 238.882812 742.039062 233.390625 739.277344 227.96875 736.378906 C 222.546875 733.480469 217.199219 730.453125 211.925781 727.289062 C 206.652344 724.128906 201.460938 720.839844 196.347656 717.425781 C 191.234375 714.007812 186.210938 710.46875 181.273438 706.808594 C 176.335938 703.144531 171.488281 699.363281 166.734375 695.464844 C 161.984375 691.5625 157.328125 687.550781 152.773438 683.417969 C 148.21875 679.292969 143.765625 675.054688 139.417969 670.707031 C 135.070312 666.359375 130.832031 661.90625 126.703125 657.351562 C 122.574219 652.796875 118.5625 648.140625 114.660156 643.390625 C 110.761719 638.636719 106.980469 633.789062 103.316406 628.851562 C 99.652344 623.914062 96.113281 618.890625 92.699219 613.777344 C 89.285156 608.664062 85.996094 603.472656 82.835938 598.199219 C 79.671875 592.925781 76.644531 587.578125 73.746094 582.15625 C 70.847656 576.734375 68.082031 571.242188 65.457031 565.683594 C 62.828125 560.125 60.335938 554.507812 57.984375 548.828125 C 55.628906 543.148438 53.417969 537.414062 51.347656 531.625 C 49.277344 525.835938 47.347656 520 45.5625 514.117188 C 43.777344 508.230469 42.140625 502.308594 40.644531 496.34375 C 39.152344 490.378906 37.804688 484.382812 36.605469 478.351562 C 35.40625 472.324219 34.355469 466.265625 33.453125 460.183594 C 32.550781 454.105469 31.796875 448.003906 31.195312 441.886719 C 30.59375 435.765625 30.140625 429.636719 29.839844 423.496094 C 29.539062 417.355469 29.386719 411.210938 29.386719 405.0625 C 29.386719 398.914062 29.539062 392.769531 29.839844 386.628906 C 30.140625 380.488281 30.59375 374.359375 31.195312 368.238281 C 31.796875 362.121094 32.550781 356.019531 33.453125 349.9375 C 34.355469 343.859375 35.40625 337.800781 36.605469 331.773438 C 37.804688 325.742188 39.152344 319.746094 40.644531 313.78125 C 42.140625 307.816406 43.777344 301.894531 45.5625 296.007812 C 47.347656 290.125 49.277344 284.289062 51.347656 278.5 C 53.417969 272.710938 55.628906 266.976562 57.984375 261.296875 C 60.335938 255.617188 62.828125 250 65.457031 244.441406 C 68.082031 238.882812 70.847656 233.390625 73.746094 227.96875 C 76.644531 222.546875 79.671875 217.199219 82.835938 211.925781 C 85.996094 206.652344 89.285156 201.460938 92.699219 196.347656 C 96.113281 191.234375 99.652344 186.210938 103.316406 181.273438 C 106.980469 176.335938 110.761719 171.488281 114.660156 166.734375 C 118.5625 161.984375 122.574219 157.328125 126.703125 152.773438 C 130.832031 148.21875 135.070312 143.765625 139.417969 139.417969 C 143.765625 135.070312 148.21875 130.832031 152.773438 126.703125 C 157.328125 122.574219 161.984375 118.5625 166.734375 114.660156 C 171.488281 110.761719 176.335938 106.980469 181.273438 103.316406 C 186.210938 99.652344 191.234375 96.113281 196.347656 92.699219 C 201.460938 89.285156 206.652344 85.996094 211.925781 82.835938 C 217.199219 79.671875 222.546875 76.644531 227.96875 73.746094 C 233.390625 70.847656 238.882812 68.082031 244.441406 65.457031 C 250 62.828125 255.617188 60.335938 261.296875 57.984375 C 266.976562 55.628906 272.710938 53.417969 278.5 51.347656 C 284.289062 49.277344 290.125 47.347656 296.007812 45.5625 C 301.894531 43.777344 307.816406 42.140625 313.78125 40.644531 C 319.746094 39.152344 325.742188 37.804688 331.773438 36.605469 C 337.800781 35.40625 343.859375 34.355469 349.9375 33.453125 C 356.019531 32.550781 362.121094 31.796875 368.238281 31.195312 C 374.359375 30.59375 380.488281 30.140625 386.628906 29.839844 C 392.769531 29.539062 398.914062 29.386719 405.0625 29.386719 C 411.210938 29.386719 417.355469 29.539062 423.496094 29.839844 C 429.636719 30.140625 435.765625 30.59375 441.886719 31.195312 C 448.003906 31.796875 454.105469 32.550781 460.183594 33.453125 C 466.265625 34.355469 472.324219 35.40625 478.351562 36.605469 C 484.382812 37.804688 490.378906 39.152344 496.34375 40.644531 C 502.308594 42.140625 508.230469 43.777344 514.117188 45.5625 C 520 47.347656 525.835938 49.277344 531.625 51.347656 C 537.414062 53.417969 543.148438 55.628906 548.828125 57.984375 C 554.507812 60.335938 560.125 62.828125 565.683594 65.457031 C 571.242188 68.082031 576.734375 70.847656 582.15625 73.746094 C 587.578125 76.644531 592.925781 79.671875 598.199219 82.835938 C 603.472656 85.996094 608.664062 89.285156 613.777344 92.699219 C 618.890625 96.113281 623.914062 99.652344 628.851562 103.316406 C 633.789062 106.980469 638.636719 110.761719 643.390625 114.660156 C 648.140625 118.5625 652.796875 122.574219 657.351562 126.703125 C 661.90625 130.832031 666.359375 135.070312 670.707031 139.417969 C 675.054688 143.765625 679.292969 148.21875 683.421875 152.773438 C 687.550781 157.328125 691.5625 161.984375 695.464844 166.734375 C 699.363281 171.488281 703.144531 176.335938 706.808594 181.273438 C 710.472656 186.210938 714.011719 191.234375 717.425781 196.347656 C 720.839844 201.460938 724.128906 206.652344 727.289062 211.925781 C 730.453125 217.199219 733.480469 222.546875 736.378906 227.96875 C 739.277344 233.390625 742.039062 238.882812 744.667969 244.441406 C 747.296875 250 749.789062 255.617188 752.140625 261.296875 C 754.496094 266.976562 756.707031 272.710938 758.777344 278.5 C 760.847656 284.289062 762.777344 290.125 764.5625 296.007812 C 766.347656 301.894531 767.984375 307.816406 769.480469 313.78125 C 770.972656 319.746094 772.320312 325.742188 773.519531 331.773438 C 774.71875 337.800781 775.769531 343.859375 776.671875 349.9375 C 777.574219 356.019531 778.328125 362.121094 778.929688 368.238281 C 779.53125 374.359375 779.984375 380.488281 780.285156 386.628906 C 780.585938 392.769531 780.738281 398.914062 780.738281 405.0625 Z M 780.738281 405.0625 "
       fill-opacity="1"
       fill-rule="nonzero"
       id="path11" />
  </g>
  <path
     fill="#f30f0d"
     d="M 355.191406 351.355469 L 355.191406 330.976562 C 348.355469 330.039062 341.414062 329.472656 334.34375 329.472656 C 249.046875 329.472656 179.664062 398.859375 179.664062 484.152344 C 179.664062 536.492188 205.816406 582.792969 245.710938 610.8125 C 219.960938 583.160156 204.683594 546.132812 204.683594 505.46875 C 204.683594 421.40625 271.597656 353.292969 355.191406 351.355469 Z M 355.191406 351.355469 "
     fill-opacity="1"
     fill-rule="nonzero"
     id="path15" />
  <path
     fill="#f30f0d"
     d="M 358.828125 576.554688 C 396.890625 576.554688 428.378906 545.832031 429.78125 508.136719 L 430.113281 171.789062 L 491.09375 171.789062 C 491.09375 171.789062 490.992188 171.324219 490.992188 171.324219 C 489.726562 164.417969 489.023438 157.28125 489.023438 150.007812 L 404.996094 150.007812 L 404.863281 486.824219 C 403.460938 524.550781 372.40625 554.804688 334.34375 554.804688 C 322.5 554.804688 311.394531 551.835938 301.585938 546.699219 C 314.429688 564.480469 335.277344 576.589844 358.863281 576.589844 Z M 358.828125 576.554688 "
     fill-opacity="1"
     fill-rule="nonzero"
     id="path17" />
  <path
     fill="#f30f0d"
     d="M 605.976562 286.609375 L 605.976562 266.859375 C 582.492188 266.859375 560.644531 259.890625 542.296875 247.914062 C 558.609375 266.660156 580.792969 281.203125 605.976562 286.574219 Z M 605.976562 286.609375 "
     fill-opacity="1"
     fill-rule="nonzero"
     id="path19" />
  <path
     fill="#f30f0d"
     d="M 542.296875 247.945312 C 524.417969 227.398438 513.542969 200.613281 513.542969 171.289062 L 490.660156 171.289062 C 496.597656 203.3125 515.976562 230.800781 542.296875 247.945312 Z M 542.296875 247.945312 "
     fill-opacity="1"
     fill-rule="nonzero"
     id="path21" />
  <path
     fill="#f30f0d"
     d="M 334.34375 412.835938 C 295.382812 412.835938 263.226562 445.160156 263.226562 484.121094 C 263.226562 511.242188 279.070312 534.824219 301.554688 546.667969 C 293.179688 535.058594 288.175781 520.847656 288.175781 505.46875 C 288.175781 466.507812 319.867188 434.816406 358.828125 434.816406 C 366.101562 434.816406 373.070312 436.019531 379.675781 438.085938 L 379.675781 352.289062 C 372.839844 351.355469 365.898438 350.789062 358.828125 350.789062 C 357.59375 350.789062 356.394531 350.855469 355.191406 350.890625 L 354.859375 350.890625 C 354.859375 350.890625 354.625 415.835938 354.625 415.835938 C 348.019531 413.769531 341.617188 412.867188 334.34375 412.867188 Z M 334.34375 412.835938 "
     fill-opacity="1"
     fill-rule="nonzero"
     id="path23" />
  <path
     fill="#f30f0d"
     d="M 605.976562 285.609375 L 605.578125 285.542969 L 605.578125 350.421875 C 561.976562 350.421875 521.480469 336.078125 488.523438 312.425781 L 488.523438 484.121094 C 488.523438 569.417969 419.640625 638.367188 334.34375 638.367188 C 301.386719 638.367188 270.832031 628.394531 245.679688 610.746094 C 273.933594 641.070312 314.195312 660.117188 358.828125 660.117188 C 444.125 660.117188 513.507812 590.730469 513.507812 505.4375 L 513.507812 334.644531 C 546.464844 358.292969 586.863281 372.238281 630.429688 372.238281 L 630.429688 288.210938 C 622.023438 288.210938 613.847656 287.308594 605.945312 285.609375 Z M 605.976562 285.609375 "
     fill-opacity="1"
     fill-rule="nonzero"
     id="path25" />
  <path
     fill="#ffffff"
     d="M 489.023438 484.121094 L 489.023438 313.328125 C 521.980469 336.980469 562.378906 350.921875 605.945312 350.921875 L 605.945312 285.609375 C 580.757812 280.203125 558.609375 266.695312 542.261719 247.945312 C 515.945312 230.769531 496.929688 203.3125 490.992188 171.289062 L 429.445312 171.289062 L 429.3125 508.105469 C 427.914062 545.832031 396.855469 576.089844 358.796875 576.089844 C 335.210938 576.089844 314.363281 564.445312 301.519531 546.632812 C 279.035156 534.792969 263.660156 511.242188 263.660156 484.085938 C 263.660156 445.125 295.347656 413.433594 334.308594 413.433594 C 341.582031 413.433594 348.554688 414.636719 355.160156 416.703125 L 355.160156 350.824219 C 271.53125 352.789062 204.113281 421.339844 204.113281 505.4375 C 204.113281 546.097656 219.925781 583.125 245.644531 610.78125 C 270.765625 628.425781 301.320312 638.800781 334.308594 638.800781 C 419.605469 638.800781 488.992188 569.417969 488.992188 484.121094 Z M 489.023438 484.121094 "
     fill-opacity="1"
     fill-rule="nonzero"
     id="path27" />
</svg>
