<svg xmlns="http://www.w3.org/2000/svg" xmlns:xlink="http://www.w3.org/1999/xlink" width="1080" zoomAndPan="magnify" viewBox="0 0 810 809.999993" height="1080" preserveAspectRatio="xMidYMid meet" version="1.0"><defs><clipPath id="61bfa6c80b"><path d="M 65 57 L 762 57 L 762 753.363281 L 65 753.363281 Z M 65 57 " clip-rule="nonzero"/></clipPath></defs><rect x="-81" width="972" fill="#ffffff" y="-80.999999" height="971.999992" fill-opacity="1"/><rect x="-81" width="972" fill="#ffffff" y="-80.999999" height="971.999992" fill-opacity="1"/><g clip-path="url(#61bfa6c80b)"><path fill="#f32927" d="M 660.546875 160.371094 C 656.542969 156.328125 652.445312 152.386719 648.246094 148.546875 C 644.050781 144.707031 639.761719 140.96875 635.382812 137.339844 C 631 133.710938 626.535156 130.191406 621.980469 126.78125 C 617.425781 123.375 612.792969 120.078125 608.074219 116.894531 C 603.359375 113.714844 598.566406 110.652344 593.703125 107.707031 C 588.835938 104.761719 583.898438 101.9375 578.890625 99.234375 C 573.886719 96.53125 568.816406 93.957031 563.683594 91.503906 C 558.550781 89.050781 553.359375 86.726562 548.113281 84.527344 C 542.867188 82.332031 537.566406 80.265625 532.21875 78.328125 C 526.871094 76.394531 521.476562 74.589844 516.039062 72.917969 C 510.601562 71.25 505.125 69.710938 499.609375 68.3125 C 494.097656 66.910156 488.550781 65.644531 482.976562 64.519531 C 477.402344 63.390625 471.800781 62.402344 466.175781 61.546875 C 460.550781 60.695312 454.910156 59.984375 449.25 59.410156 C 443.589844 58.835938 437.917969 58.398438 432.238281 58.105469 C 426.558594 57.808594 420.871094 57.65625 415.183594 57.640625 L 413.707031 57.640625 C 408.015625 57.632812 402.328125 57.761719 396.640625 58.035156 C 390.957031 58.304688 385.28125 58.714844 379.613281 59.265625 C 373.949219 59.8125 368.300781 60.503906 362.667969 61.328125 C 357.035156 62.15625 351.429688 63.121094 345.84375 64.222656 C 340.261719 65.324219 334.707031 66.5625 329.183594 67.9375 C 323.660156 69.3125 318.171875 70.824219 312.722656 72.46875 C 307.273438 74.113281 301.867188 75.886719 296.503906 77.796875 C 291.144531 79.707031 285.832031 81.75 280.570312 83.917969 C 275.308594 86.089844 270.101562 88.386719 264.953125 90.8125 C 259.804688 93.238281 254.714844 95.789062 249.691406 98.464844 C 244.667969 101.140625 239.714844 103.941406 234.828125 106.859375 C 229.941406 109.777344 225.128906 112.816406 220.390625 115.972656 C 215.652344 119.125 210.996094 122.394531 206.417969 125.78125 C 201.84375 129.164062 197.351562 132.660156 192.945312 136.261719 C 188.539062 139.867188 184.226562 143.578125 180.003906 147.394531 C 175.777344 151.210938 171.652344 155.128906 167.621094 159.148438 C 163.589844 163.167969 159.660156 167.28125 155.832031 171.492188 C 152.003906 175.707031 148.28125 180.007812 144.664062 184.402344 C 141.042969 188.800781 137.539062 193.28125 134.140625 197.847656 C 130.742188 202.414062 127.457031 207.0625 124.289062 211.789062 C 121.121094 216.515625 118.070312 221.320312 115.136719 226.199219 C 112.203125 231.078125 109.390625 236.023438 106.699219 241.039062 C 104.007812 246.054688 101.441406 251.136719 99 256.277344 C 96.558594 261.417969 94.246094 266.617188 92.058594 271.875 C 89.875 277.128906 87.816406 282.433594 85.894531 287.792969 C 83.96875 293.148438 82.175781 298.546875 80.515625 303.992188 C 78.855469 309.4375 77.328125 314.921875 75.9375 320.4375 C 74.546875 325.957031 73.289062 331.507812 72.171875 337.089844 C 71.054688 342.671875 70.070312 348.277344 69.226562 353.90625 C 68.386719 359.535156 67.679688 365.183594 67.113281 370.847656 C 66.546875 376.507812 66.121094 382.183594 65.832031 387.867188 C 65.546875 393.554688 65.398438 399.242188 65.390625 404.933594 C 65.378906 410.625 65.511719 416.316406 65.78125 422 C 66.054688 427.6875 66.464844 433.363281 67.011719 439.027344 C 67.5625 444.691406 68.25 450.34375 69.078125 455.972656 C 69.90625 461.605469 70.871094 467.214844 71.972656 472.796875 C 73.074219 478.382812 74.3125 483.9375 75.6875 489.460938 C 77.0625 494.984375 78.570312 500.46875 80.214844 505.917969 C 81.859375 511.367188 83.636719 516.773438 85.546875 522.136719 C 87.457031 527.5 89.496094 532.8125 91.667969 538.074219 C 93.839844 543.335938 96.136719 548.539062 98.5625 553.691406 C 100.988281 558.839844 103.539062 563.925781 106.214844 568.949219 C 108.890625 573.972656 111.6875 578.929688 114.609375 583.816406 C 117.527344 588.703125 120.566406 593.515625 123.71875 598.25 C 126.875 602.988281 130.144531 607.648438 133.53125 612.222656 C 136.914062 616.800781 140.40625 621.292969 144.011719 625.695312 C 147.617188 630.101562 151.328125 634.417969 155.144531 638.640625 C 158.960938 642.863281 162.878906 646.988281 166.898438 651.019531 C 170.914062 655.050781 175.03125 658.980469 179.242188 662.808594 C 183.457031 666.640625 187.757812 670.363281 192.152344 673.980469 C 196.546875 677.597656 201.027344 681.105469 205.597656 684.503906 C 210.164062 687.898438 214.808594 691.183594 219.539062 694.351562 C 224.265625 697.523438 229.070312 700.574219 233.949219 703.507812 C 238.824219 706.441406 243.773438 709.253906 248.789062 711.945312 C 253.804688 714.632812 258.882812 717.199219 264.027344 719.640625 C 269.167969 722.082031 274.367188 724.394531 279.621094 726.582031 C 284.878906 728.769531 290.183594 730.824219 295.539062 732.75 C 300.898438 734.675781 306.296875 736.46875 311.742188 738.128906 C 317.1875 739.789062 322.667969 741.316406 328.1875 742.707031 C 333.707031 744.097656 339.257812 745.351562 344.839844 746.46875 C 350.421875 747.589844 356.027344 748.570312 361.65625 749.414062 C 367.285156 750.257812 372.929688 750.960938 378.59375 751.527344 C 384.257812 752.09375 389.933594 752.523438 395.617188 752.808594 C 401.304688 753.097656 406.992188 753.246094 412.683594 753.253906 L 413.921875 753.253906 C 419.613281 753.234375 425.296875 753.074219 430.980469 752.773438 C 436.660156 752.476562 442.332031 752.039062 447.992188 751.460938 C 453.652344 750.886719 459.292969 750.171875 464.921875 749.320312 C 470.546875 748.46875 476.144531 747.476562 481.722656 746.351562 C 487.300781 745.226562 492.847656 743.964844 498.363281 742.570312 C 503.875 741.171875 509.355469 739.640625 514.792969 737.976562 C 520.234375 736.3125 525.632812 734.515625 530.984375 732.585938 C 536.335938 730.660156 541.640625 728.601562 546.890625 726.414062 C 552.144531 724.226562 557.339844 721.910156 562.476562 719.46875 C 567.617188 717.027344 572.691406 714.460938 577.707031 711.773438 C 582.71875 709.082031 587.664062 706.273438 592.539062 703.339844 C 597.417969 700.410156 602.21875 697.359375 606.945312 694.195312 C 611.671875 691.027344 616.320312 687.75 620.886719 684.355469 C 625.453125 680.960938 629.933594 677.460938 634.328125 673.847656 C 638.722656 670.234375 643.027344 666.515625 647.242188 662.695312 C 651.457031 658.871094 655.574219 654.949219 659.597656 650.925781 C 663.617188 646.902344 667.539062 642.78125 671.359375 638.566406 C 675.179688 634.347656 678.894531 630.042969 682.507812 625.644531 C 686.117188 621.25 689.617188 616.765625 693.007812 612.195312 C 696.398438 607.628906 699.675781 602.980469 702.839844 598.25 C 706.003906 593.523438 709.050781 588.71875 711.980469 583.84375 C 714.90625 578.964844 717.714844 574.019531 720.402344 569.003906 C 723.089844 563.988281 725.652344 558.910156 728.09375 553.773438 C 730.53125 548.632812 732.84375 543.433594 735.027344 538.183594 C 737.214844 532.929688 739.269531 527.625 741.195312 522.273438 C 743.121094 516.917969 744.914062 511.519531 746.574219 506.078125 C 748.238281 500.636719 749.765625 495.160156 751.160156 489.644531 C 752.554688 484.128906 753.8125 478.582031 754.933594 473.003906 C 756.058594 467.425781 757.042969 461.824219 757.894531 456.199219 C 758.742188 450.574219 759.453125 444.929688 760.027344 439.269531 C 760.601562 433.609375 761.035156 427.9375 761.332031 422.257812 C 761.625 416.574219 761.785156 410.890625 761.800781 405.199219 C 761.828125 399.53125 761.714844 393.867188 761.460938 388.203125 C 761.207031 382.542969 760.8125 376.886719 760.277344 371.246094 C 759.746094 365.601562 759.070312 359.976562 758.257812 354.367188 C 757.441406 348.757812 756.492188 343.167969 755.398438 337.605469 C 754.308594 332.042969 753.078125 326.511719 751.714844 321.011719 C 750.347656 315.511719 748.847656 310.046875 747.210938 304.617188 C 745.574219 299.191406 743.804688 293.808594 741.898438 288.46875 C 739.996094 283.128906 737.960938 277.839844 735.792969 272.601562 C 733.628906 267.367188 731.332031 262.183594 728.910156 257.058594 C 726.484375 251.9375 723.9375 246.875 721.261719 241.875 C 718.585938 236.878906 715.789062 231.949219 712.871094 227.09375 C 709.953125 222.234375 706.914062 217.449219 703.757812 212.742188 C 700.601562 208.03125 697.328125 203.40625 693.941406 198.859375 C 690.558594 194.316406 687.058594 189.855469 683.453125 185.484375 C 679.84375 181.109375 676.132812 176.832031 672.3125 172.644531 C 668.492188 168.453125 664.570312 164.363281 660.546875 160.371094 Z M 333.898438 516.949219 C 336.75 518.550781 339.503906 520.3125 342.152344 522.234375 C 344.800781 524.15625 347.332031 526.222656 349.742188 528.433594 C 352.152344 530.648438 354.425781 532.992188 356.5625 535.46875 C 358.703125 537.945312 360.691406 540.535156 362.53125 543.242188 C 364.371094 545.949219 366.046875 548.753906 367.5625 551.652344 C 369.078125 554.554688 370.421875 557.53125 371.59375 560.585938 C 372.761719 563.644531 373.753906 566.753906 374.566406 569.925781 C 375.375 573.097656 376 576.300781 376.441406 579.542969 C 373.261719 580.019531 370.066406 580.332031 366.851562 580.480469 C 363.640625 580.625 360.429688 580.609375 357.21875 580.425781 C 354.007812 580.242188 350.816406 579.894531 347.640625 579.382812 C 344.464844 578.871094 341.324219 578.195312 338.21875 577.359375 C 335.113281 576.527344 332.058594 575.535156 329.058594 574.382812 C 326.054688 573.234375 323.117188 571.933594 320.25 570.480469 C 317.378906 569.03125 314.589844 567.433594 311.886719 565.695312 C 309.179688 563.957031 306.574219 562.082031 304.058594 560.078125 C 301.9375 558.492188 299.90625 556.800781 297.960938 555.003906 C 296.011719 553.207031 294.164062 551.3125 292.417969 549.324219 C 290.667969 547.335938 289.027344 545.257812 287.492188 543.101562 C 285.960938 540.941406 284.542969 538.707031 283.242188 536.398438 C 281.941406 534.09375 280.761719 531.722656 279.707031 529.292969 C 278.652344 526.863281 277.726562 524.386719 276.929688 521.859375 C 276.132812 519.335938 275.46875 516.773438 274.9375 514.179688 C 274.40625 511.585938 274.011719 508.96875 273.75 506.332031 C 289.316406 500.402344 313.292969 504.582031 333.898438 516.917969 Z M 552.84375 505.523438 C 552.558594 508.253906 552.132812 510.960938 551.5625 513.648438 C 550.996094 516.335938 550.292969 518.984375 549.449219 521.597656 C 548.609375 524.210938 547.632812 526.773438 546.527344 529.285156 C 545.417969 531.796875 544.183594 534.246094 542.824219 536.628906 C 541.460938 539.011719 539.980469 541.320312 538.382812 543.550781 C 536.78125 545.78125 535.070312 547.921875 533.246094 549.976562 C 531.425781 552.03125 529.503906 553.984375 527.476562 555.835938 C 525.453125 557.691406 523.335938 559.4375 521.132812 561.070312 C 518.683594 563.003906 516.144531 564.808594 513.507812 566.484375 C 510.875 568.15625 508.164062 569.691406 505.375 571.085938 C 502.582031 572.484375 499.726562 573.730469 496.808594 574.835938 C 493.890625 575.9375 490.921875 576.890625 487.90625 577.6875 C 484.890625 578.488281 481.839844 579.128906 478.757812 579.617188 C 475.675781 580.101562 472.578125 580.429688 469.460938 580.601562 C 466.347656 580.769531 463.230469 580.777344 460.113281 580.628906 C 456.996094 580.476562 453.894531 580.167969 450.8125 579.699219 C 451.019531 576.9375 451.378906 574.191406 451.886719 571.46875 C 452.398438 568.746094 453.058594 566.058594 453.867188 563.410156 C 454.675781 560.757812 455.625 558.160156 456.71875 555.617188 C 457.816406 553.070312 459.046875 550.59375 460.417969 548.183594 C 461.785156 545.777344 463.28125 543.449219 464.910156 541.207031 C 466.535156 538.960938 468.28125 536.816406 470.144531 534.765625 C 472.007812 532.714844 473.976562 530.773438 476.054688 528.941406 C 478.132812 527.109375 480.308594 525.394531 482.574219 523.804688 C 484.992188 521.824219 487.511719 519.980469 490.125 518.273438 C 492.742188 516.566406 495.445312 515.003906 498.230469 513.589844 C 501.015625 512.171875 503.867188 510.910156 506.789062 509.804688 C 509.710938 508.695312 512.683594 507.746094 515.707031 506.957031 C 518.730469 506.171875 521.785156 505.546875 524.878906 505.089844 C 527.96875 504.632812 531.074219 504.339844 534.195312 504.21875 C 537.320312 504.09375 540.4375 504.140625 543.554688 504.351562 C 546.671875 504.566406 549.769531 504.945312 552.84375 505.492188 Z M 291.664062 478.769531 L 291.425781 478.769531 C 282.984375 478.953125 274.582031 479.636719 266.21875 480.820312 C 262.480469 481.28125 258.75 481.730469 255.019531 482.101562 C 253.316406 482.128906 251.691406 482.507812 250.152344 483.234375 C 248.613281 483.964844 247.289062 484.980469 246.1875 486.28125 C 245.210938 487.851562 244.601562 489.550781 244.367188 491.382812 C 244.128906 493.21875 244.28125 495.015625 244.824219 496.785156 C 247.410156 507.914062 248.96875 519.183594 249.496094 530.597656 C 247.449219 529.058594 245.398438 527.523438 243.441406 526.109375 C 237.425781 522.015625 231.875 517.367188 226.792969 512.164062 C 225.019531 510.410156 223.3125 508.589844 221.675781 506.710938 C 220.035156 504.828125 218.46875 502.890625 216.972656 500.894531 C 215.476562 498.898438 214.054688 496.851562 212.707031 494.753906 C 211.363281 492.652344 210.09375 490.507812 208.90625 488.3125 C 207.714844 486.121094 206.609375 483.886719 205.582031 481.613281 C 204.558594 479.339844 203.617188 477.03125 202.761719 474.6875 C 201.90625 472.347656 201.136719 469.976562 200.453125 467.574219 C 199.773438 465.175781 199.179688 462.753906 198.671875 460.3125 C 198.167969 457.871094 197.753906 455.410156 197.429688 452.9375 C 197.105469 450.464844 196.871094 447.984375 196.730469 445.492188 C 196.585938 443.003906 196.535156 440.511719 196.578125 438.015625 C 196.617188 435.523438 196.746094 433.03125 196.972656 430.546875 C 197.195312 428.0625 197.507812 425.589844 197.910156 423.128906 C 198.316406 420.667969 198.808594 418.226562 199.390625 415.800781 C 199.976562 413.375 200.648438 410.972656 201.40625 408.597656 C 202.164062 406.222656 203.011719 403.878906 203.941406 401.5625 C 204.726562 399.226562 205.59375 396.917969 206.546875 394.644531 C 207.5 392.367188 208.53125 390.132812 209.648438 387.933594 C 210.761719 385.734375 211.957031 383.578125 213.230469 381.464844 C 214.503906 379.351562 215.851562 377.289062 217.273438 375.273438 C 218.699219 373.261719 220.191406 371.300781 221.757812 369.398438 C 223.324219 367.492188 224.957031 365.644531 226.660156 363.859375 C 228.359375 362.074219 230.121094 360.351562 231.949219 358.695312 C 233.773438 357.039062 235.660156 355.449219 237.601562 353.929688 C 239.542969 352.410156 241.539062 350.964844 243.585938 349.589844 C 245.632812 348.214844 247.730469 346.917969 249.871094 345.695312 C 252.011719 344.472656 254.195312 343.332031 256.421875 342.269531 C 258.648438 341.207031 260.910156 340.226562 263.207031 339.328125 C 265.503906 338.433594 267.832031 337.621094 270.1875 336.890625 C 272.542969 336.164062 274.921875 335.523438 277.324219 334.96875 C 279.730469 334.414062 282.148438 333.949219 284.585938 333.570312 C 287.023438 333.195312 289.46875 332.90625 291.929688 332.707031 C 303.671875 331.167969 305.90625 326.765625 306.683594 316.824219 C 311.046875 261.851562 351.019531 219.113281 401.71875 215.199219 C 403.316406 215.007812 404.917969 214.855469 406.523438 214.738281 C 408.128906 214.617188 409.734375 214.539062 411.34375 214.492188 C 412.953125 214.449219 414.5625 214.441406 416.167969 214.46875 C 417.777344 214.5 419.386719 214.566406 420.992188 214.667969 C 422.597656 214.769531 424.199219 214.910156 425.800781 215.085938 C 427.398438 215.257812 428.992188 215.472656 430.582031 215.71875 C 432.171875 215.96875 433.757812 216.253906 435.332031 216.574219 C 436.910156 216.894531 438.480469 217.25 440.039062 217.644531 C 441.601562 218.035156 443.152344 218.464844 444.691406 218.929688 C 446.234375 219.390625 447.761719 219.890625 449.28125 220.421875 C 450.800781 220.957031 452.304688 221.523438 453.796875 222.125 C 455.289062 222.726562 456.765625 223.363281 458.230469 224.03125 C 459.695312 224.703125 461.140625 225.40625 462.570312 226.140625 C 464.003906 226.875 465.417969 227.644531 466.8125 228.445312 C 468.207031 229.242188 469.585938 230.074219 470.945312 230.9375 C 472.300781 231.800781 473.640625 232.695312 474.957031 233.621094 C 476.273438 234.542969 477.570312 235.496094 478.84375 236.480469 C 480.117188 237.464844 481.367188 238.476562 482.59375 239.515625 C 483.824219 240.558594 485.027344 241.625 486.203125 242.722656 C 487.382812 243.816406 488.535156 244.9375 489.664062 246.085938 C 490.789062 247.234375 491.890625 248.40625 492.964844 249.605469 C 494.039062 250.804688 495.085938 252.027344 496.101562 253.273438 C 497.121094 254.519531 498.109375 255.789062 499.070312 257.078125 C 500.03125 258.371094 500.960938 259.683594 501.859375 261.015625 C 502.761719 262.351562 503.628906 263.703125 504.46875 265.078125 C 505.304688 266.453125 506.113281 267.84375 506.886719 269.253906 C 507.660156 270.664062 508.402344 272.09375 509.113281 273.535156 C 509.824219 274.980469 510.5 276.441406 511.140625 277.914062 C 511.785156 279.390625 512.394531 280.878906 512.96875 282.382812 C 513.542969 283.886719 514.082031 285.402344 514.589844 286.929688 C 515.09375 288.457031 515.5625 289.996094 516 291.542969 C 516.433594 293.09375 516.832031 294.652344 517.199219 296.21875 C 519.296875 304.003906 520.433594 311.929688 520.601562 319.992188 C 520.671875 329.398438 525.015625 331.578125 533.027344 332.285156 C 535.726562 332.53125 538.414062 332.875 541.089844 333.320312 C 543.761719 333.769531 546.414062 334.316406 549.046875 334.96875 C 551.675781 335.617188 554.28125 336.367188 556.855469 337.214844 C 559.429688 338.0625 561.96875 339.007812 564.46875 340.046875 C 566.972656 341.089844 569.429688 342.226562 571.847656 343.453125 C 574.261719 344.683594 576.628906 346.003906 578.945312 347.410156 C 581.257812 348.820312 583.519531 350.316406 585.71875 351.898438 C 587.921875 353.480469 590.058594 355.140625 592.132812 356.886719 C 594.207031 358.632812 596.214844 360.453125 598.148438 362.347656 C 600.085938 364.246094 601.945312 366.214844 603.730469 368.253906 C 605.519531 370.292969 607.222656 372.398438 608.847656 374.566406 C 610.472656 376.734375 612.015625 378.960938 613.46875 381.25 C 614.925781 383.535156 616.292969 385.875 617.570312 388.265625 C 618.847656 390.65625 620.03125 393.089844 621.125 395.570312 C 622.214844 398.054688 623.210938 400.570312 624.113281 403.128906 C 625.011719 405.683594 625.8125 408.273438 626.515625 410.890625 C 627.21875 413.507812 627.820312 416.148438 628.320312 418.8125 C 628.824219 421.476562 629.222656 424.15625 629.519531 426.851562 C 629.816406 429.542969 630.011719 432.246094 630.101562 434.953125 C 630.191406 437.664062 630.179688 440.371094 630.066406 443.082031 C 629.949219 445.789062 629.730469 448.488281 629.410156 451.179688 C 629.089844 453.871094 628.667969 456.546875 628.140625 459.207031 C 627.617188 461.863281 626.992188 464.5 626.265625 467.113281 C 625.539062 469.722656 624.714844 472.304688 623.792969 474.851562 C 622.871094 477.402344 621.851562 479.910156 620.738281 482.382812 C 619.625 484.855469 618.417969 487.277344 617.121094 489.65625 C 615.820312 492.039062 614.433594 494.363281 612.957031 496.636719 C 611.484375 498.910156 609.921875 501.125 608.277344 503.277344 C 606.632812 505.433594 604.910156 507.523438 603.105469 509.546875 C 601.300781 511.570312 599.421875 513.519531 597.46875 515.398438 C 595.515625 517.28125 593.496094 519.082031 591.40625 520.808594 C 589.316406 522.535156 587.164062 524.179688 584.949219 525.742188 C 582.675781 527.273438 580.304688 528.640625 577.835938 529.839844 L 574.988281 531.324219 C 575.550781 528.085938 576.011719 524.953125 576.546875 521.910156 C 577.664062 513.972656 579.1875 506.117188 581.117188 498.339844 C 581.8125 496.554688 582.121094 494.707031 582.039062 492.792969 C 581.960938 490.878906 581.503906 489.058594 580.664062 487.335938 C 579.253906 485.644531 577.570312 484.292969 575.617188 483.273438 C 573.664062 482.257812 571.589844 481.652344 569.394531 481.464844 C 559.726562 479.355469 549.941406 478.28125 540.046875 478.238281 C 534.632812 478.234375 529.242188 478.601562 523.875 479.34375 C 518.511719 480.082031 513.222656 481.191406 508.011719 482.664062 C 502.796875 484.136719 497.710938 485.960938 492.753906 488.136719 C 487.792969 490.3125 483.007812 492.820312 478.394531 495.65625 C 475.667969 497.296875 472.972656 498.996094 469.816406 501.003906 L 466.117188 503.339844 C 465.691406 498.847656 465.027344 494.386719 464.132812 489.964844 C 463.234375 485.539062 462.109375 481.175781 460.753906 476.867188 C 459.394531 472.5625 457.816406 468.339844 456.019531 464.199219 C 454.21875 460.058594 452.203125 456.027344 449.980469 452.097656 C 447.753906 448.167969 445.332031 444.367188 442.707031 440.695312 C 440.082031 437.023438 437.273438 433.496094 434.277344 430.121094 C 431.28125 426.742188 428.117188 423.53125 424.785156 420.488281 C 421.449219 417.441406 417.96875 414.582031 414.332031 411.902344 L 413.585938 411.347656 L 412.835938 411.882812 C 409.15625 414.539062 405.628906 417.390625 402.257812 420.425781 C 398.882812 423.464844 395.679688 426.675781 392.648438 430.054688 C 389.621094 433.4375 386.777344 436.96875 384.128906 440.65625 C 381.476562 444.339844 379.027344 448.15625 376.785156 452.105469 C 374.542969 456.054688 372.519531 460.109375 370.710938 464.273438 C 368.90625 468.4375 367.324219 472.6875 365.972656 477.023438 C 364.621094 481.355469 363.503906 485.75 362.625 490.203125 C 361.742188 494.660156 361.101562 499.148438 360.703125 503.667969 C 355.777344 499.855469 350.585938 496.449219 345.125 493.449219 C 339.664062 490.449219 334.003906 487.890625 328.144531 485.777344 C 322.285156 483.664062 316.296875 482.019531 310.179688 480.84375 C 304.058594 479.671875 297.886719 478.980469 291.664062 478.769531 Z M 413.707031 446.464844 C 415.886719 448.679688 417.945312 451.003906 419.886719 453.433594 C 421.824219 455.859375 423.636719 458.382812 425.320312 460.996094 C 427.003906 463.609375 428.546875 466.300781 429.957031 469.070312 C 431.363281 471.84375 432.628906 474.679688 433.746094 477.578125 C 434.863281 480.476562 435.832031 483.425781 436.648438 486.425781 C 437.464844 489.425781 438.128906 492.457031 438.636719 495.523438 C 439.140625 498.589844 439.492188 501.675781 439.683594 504.777344 C 439.875 507.878906 439.910156 510.984375 439.785156 514.089844 C 439.773438 516.851562 439.621094 519.609375 439.324219 522.355469 C 439.03125 525.105469 438.59375 527.828125 438.015625 530.53125 C 437.4375 533.234375 436.722656 535.898438 435.871094 538.527344 C 435.019531 541.15625 434.03125 543.734375 432.914062 546.257812 C 431.792969 548.785156 430.546875 551.25 429.175781 553.644531 C 427.800781 556.042969 426.308594 558.363281 424.695312 560.609375 C 423.082031 562.851562 421.355469 565.007812 419.519531 567.070312 C 417.683594 569.136719 415.746094 571.101562 413.707031 572.964844 C 411.601562 571.09375 409.601562 569.117188 407.707031 567.03125 C 405.8125 564.945312 404.035156 562.761719 402.375 560.488281 C 400.714844 558.210938 399.179688 555.851562 397.773438 553.410156 C 396.363281 550.972656 395.089844 548.460938 393.949219 545.886719 C 392.8125 543.308594 391.8125 540.675781 390.957031 537.992188 C 390.097656 535.308594 389.386719 532.585938 388.820312 529.828125 C 388.257812 527.066406 387.839844 524.285156 387.570312 521.480469 C 387.304688 518.671875 387.1875 515.863281 387.222656 513.046875 C 387.011719 509.960938 386.976562 506.875 387.113281 503.789062 C 387.25 500.703125 387.558594 497.632812 388.039062 494.578125 C 388.515625 491.527344 389.164062 488.511719 389.980469 485.53125 C 390.796875 482.550781 391.773438 479.621094 392.917969 476.75 C 394.058594 473.878906 395.359375 471.082031 396.8125 468.355469 C 398.265625 465.628906 399.867188 462.992188 401.617188 460.445312 C 403.367188 457.894531 405.25 455.453125 407.273438 453.117188 C 409.292969 450.777344 411.4375 448.5625 413.707031 446.464844 Z M 429.292969 724.316406 C 426.023438 721.386719 426.023438 713.691406 426.015625 699.726562 C 426.015625 677.460938 426.015625 655.195312 426.015625 632.425781 L 426.015625 603.449219 L 430.195312 603.765625 C 433.148438 603.925781 436.085938 604.234375 439.007812 604.691406 C 443.664062 605.613281 448.359375 606.257812 453.09375 606.621094 C 457.824219 606.988281 462.5625 607.074219 467.304688 606.878906 C 472.050781 606.683594 476.765625 606.210938 481.453125 605.457031 C 486.140625 604.703125 490.765625 603.675781 495.332031 602.375 C 499.898438 601.074219 504.371094 599.507812 508.75 597.675781 C 513.128906 595.84375 517.386719 593.761719 521.519531 591.425781 C 525.652344 589.09375 529.632812 586.519531 533.460938 583.714844 C 537.292969 580.910156 540.941406 577.886719 544.414062 574.648438 C 549.835938 570.195312 555.917969 566.984375 562.652344 565.015625 C 566.046875 563.914062 569.390625 562.679688 572.6875 561.3125 C 575.984375 559.945312 579.222656 558.453125 582.398438 556.828125 C 585.578125 555.203125 588.6875 553.457031 591.726562 551.585938 C 594.765625 549.714844 597.722656 547.726562 600.605469 545.617188 C 603.484375 543.511719 606.277344 541.296875 608.984375 538.96875 C 611.6875 536.640625 614.296875 534.207031 616.808594 531.671875 C 619.320312 529.136719 621.726562 526.503906 624.03125 523.777344 C 626.332031 521.050781 628.523438 518.238281 630.601562 515.335938 C 632.679688 512.4375 634.640625 509.457031 636.484375 506.402344 C 638.324219 503.34375 640.042969 500.21875 641.636719 497.027344 C 643.230469 493.835938 644.695312 490.582031 646.03125 487.273438 C 647.367188 483.964844 648.570312 480.605469 649.640625 477.203125 C 650.707031 473.796875 651.640625 470.355469 652.4375 466.875 C 653.230469 463.398438 653.886719 459.890625 654.402344 456.359375 C 654.921875 452.828125 655.296875 449.285156 655.53125 445.722656 C 655.765625 442.160156 655.859375 438.597656 655.8125 435.027344 C 655.707031 431.492188 655.460938 427.964844 655.074219 424.445312 C 654.6875 420.929688 654.160156 417.433594 653.492188 413.957031 C 652.824219 410.484375 652.019531 407.039062 651.074219 403.628906 C 650.128906 400.21875 649.050781 396.851562 647.835938 393.53125 C 646.625 390.207031 645.277344 386.9375 643.800781 383.71875 C 642.324219 380.503906 640.722656 377.351562 638.992188 374.265625 C 637.265625 371.179688 635.414062 368.164062 633.445312 365.226562 C 631.472656 362.289062 629.386719 359.433594 627.1875 356.660156 C 624.988281 353.890625 622.679688 351.210938 620.265625 348.625 C 617.851562 346.035156 615.335938 343.550781 612.722656 341.167969 C 610.109375 338.78125 607.402344 336.503906 604.605469 334.335938 C 601.808594 332.167969 598.929688 330.117188 595.96875 328.179688 C 593.007812 326.242188 589.972656 324.429688 586.867188 322.734375 C 583.757812 321.042969 580.589844 319.476562 577.355469 318.035156 C 574.125 316.597656 570.839844 315.289062 567.5 314.113281 C 564.164062 312.9375 560.785156 311.898438 557.363281 310.996094 C 556.460938 310.886719 555.574219 310.699219 554.703125 310.441406 C 553.832031 310.179688 552.988281 309.847656 552.175781 309.445312 C 551.359375 309.039062 550.585938 308.570312 549.851562 308.035156 C 549.113281 307.5 548.429688 306.90625 547.796875 306.253906 C 547.164062 305.601562 546.589844 304.902344 546.074219 304.152344 C 545.558594 303.402344 545.113281 302.613281 544.730469 301.789062 C 544.351562 300.960938 544.042969 300.109375 543.804688 299.234375 C 543.570312 298.355469 543.410156 297.460938 543.328125 296.558594 C 542.984375 294.660156 542.601562 292.769531 542.175781 290.890625 C 541.753906 289.011719 541.285156 287.140625 540.78125 285.28125 C 540.273438 283.421875 539.722656 281.574219 539.132812 279.738281 C 538.546875 277.90625 537.914062 276.082031 537.246094 274.277344 C 536.578125 272.46875 535.867188 270.675781 535.117188 268.902344 C 534.367188 267.125 533.582031 265.367188 532.753906 263.625 C 531.925781 261.882812 531.0625 260.160156 530.160156 258.460938 C 529.257812 256.757812 528.316406 255.074219 527.339844 253.414062 C 526.363281 251.75 525.347656 250.113281 524.296875 248.496094 C 523.25 246.878906 522.164062 245.289062 521.042969 243.71875 C 519.921875 242.148438 518.769531 240.605469 517.578125 239.089844 C 516.390625 237.574219 515.167969 236.082031 513.914062 234.617188 C 512.660156 233.15625 511.375 231.722656 510.054688 230.3125 C 508.738281 228.90625 507.390625 227.53125 506.011719 226.183594 C 504.632812 224.839844 503.222656 223.523438 501.785156 222.238281 C 500.347656 220.953125 498.882812 219.703125 497.390625 218.480469 C 495.898438 217.261719 494.378906 216.074219 492.835938 214.921875 C 491.289062 213.769531 489.71875 212.652344 488.125 211.570312 C 486.53125 210.488281 484.914062 209.441406 483.273438 208.429688 C 481.632812 207.417969 479.96875 206.441406 478.285156 205.503906 C 476.601562 204.566406 474.898438 203.667969 473.175781 202.804688 C 471.449219 201.941406 469.710938 201.117188 467.949219 200.332031 C 466.1875 199.546875 464.410156 198.800781 462.617188 198.09375 C 460.824219 197.386719 459.019531 196.71875 457.195312 196.09375 C 455.371094 195.464844 453.535156 194.878906 451.6875 194.332031 C 449.839844 193.789062 447.980469 193.285156 446.109375 192.820312 C 444.238281 192.355469 442.359375 191.933594 440.46875 191.554688 C 438.578125 191.175781 436.679688 190.835938 434.777344 190.539062 C 432.871094 190.242188 430.960938 189.988281 429.046875 189.777344 C 427.128906 189.566406 425.210938 189.398438 423.289062 189.269531 C 421.363281 189.144531 419.4375 189.058594 417.511719 189.015625 C 415.585938 188.976562 413.65625 188.976562 411.730469 189.019531 L 411.578125 189.019531 C 409.695312 189.046875 407.816406 189.113281 405.9375 189.222656 C 404.058594 189.328125 402.183594 189.476562 400.308594 189.664062 C 398.4375 189.851562 396.570312 190.078125 394.707031 190.347656 C 392.847656 190.613281 390.988281 190.921875 389.140625 191.269531 C 387.292969 191.617188 385.449219 192.003906 383.617188 192.429688 C 381.785156 192.855469 379.960938 193.320312 378.148438 193.824219 C 376.335938 194.328125 374.535156 194.871094 372.746094 195.453125 C 370.953125 196.03125 369.179688 196.652344 367.414062 197.308594 C 365.652344 197.964844 363.902344 198.660156 362.171875 199.390625 C 360.4375 200.125 358.71875 200.894531 357.019531 201.699219 C 355.320312 202.503906 353.636719 203.34375 351.972656 204.222656 C 350.308594 205.101562 348.660156 206.011719 347.035156 206.960938 C 345.410156 207.910156 343.808594 208.890625 342.222656 209.90625 C 340.640625 210.925781 339.078125 211.972656 337.539062 213.058594 C 336 214.140625 334.488281 215.257812 332.996094 216.40625 C 331.507812 217.554688 330.039062 218.734375 328.601562 219.945312 C 327.160156 221.15625 325.746094 222.398438 324.359375 223.667969 C 322.972656 224.941406 321.613281 226.238281 320.28125 227.570312 C 318.949219 228.898438 317.648438 230.257812 316.375 231.644531 C 315.101562 233.027344 313.859375 234.441406 312.644531 235.878906 C 311.433594 237.316406 310.25 238.78125 309.101562 240.269531 C 307.953125 241.761719 306.832031 243.273438 305.75 244.808594 C 304.664062 246.347656 303.609375 247.90625 302.59375 249.488281 C 301.574219 251.070312 300.589844 252.675781 299.640625 254.296875 C 298.691406 255.921875 297.773438 257.566406 296.894531 259.230469 C 296.015625 260.894531 295.171875 262.574219 294.363281 264.273438 C 293.558594 265.972656 292.785156 267.691406 292.050781 269.421875 C 291.316406 271.15625 290.621094 272.902344 289.960938 274.664062 C 289.300781 276.425781 288.679688 278.203125 288.097656 279.992188 C 287.515625 281.78125 286.96875 283.582031 286.464844 285.394531 C 285.957031 287.207031 285.488281 289.027344 285.0625 290.859375 C 284.632812 292.691406 284.246094 294.535156 283.894531 296.382812 C 283.808594 297.292969 283.648438 298.1875 283.410156 299.066406 C 283.175781 299.949219 282.867188 300.804688 282.488281 301.636719 C 282.109375 302.464844 281.664062 303.257812 281.152344 304.015625 C 280.640625 304.769531 280.070312 305.480469 279.441406 306.140625 C 278.8125 306.800781 278.132812 307.40625 277.402344 307.953125 C 276.671875 308.5 275.898438 308.980469 275.089844 309.398438 C 274.277344 309.816406 273.4375 310.164062 272.566406 310.445312 C 271.699219 310.722656 270.8125 310.925781 269.910156 311.054688 C 266.453125 311.945312 263.042969 312.972656 259.671875 314.140625 C 256.300781 315.308594 252.980469 316.609375 249.714844 318.046875 C 246.449219 319.484375 243.25 321.050781 240.113281 322.75 C 236.972656 324.449219 233.910156 326.269531 230.921875 328.21875 C 227.933594 330.164062 225.027344 332.230469 222.207031 334.414062 C 219.386719 336.597656 216.660156 338.890625 214.023438 341.296875 C 211.390625 343.703125 208.859375 346.210938 206.425781 348.824219 C 203.996094 351.433594 201.675781 354.140625 199.46875 356.941406 C 197.257812 359.742188 195.164062 362.628906 193.191406 365.597656 C 191.214844 368.570312 189.363281 371.617188 187.636719 374.738281 C 185.910156 377.859375 184.3125 381.046875 182.847656 384.296875 C 181.378906 387.550781 180.046875 390.855469 178.847656 394.214844 C 177.648438 397.574219 176.589844 400.980469 175.667969 404.425781 C 174.746094 407.871094 173.964844 411.347656 173.328125 414.859375 C 172.6875 418.367188 172.195312 421.898438 171.84375 425.449219 C 171.492188 429 171.285156 432.558594 171.226562 436.125 C 171.195312 439.722656 171.308594 443.316406 171.570312 446.90625 C 171.828125 450.496094 172.230469 454.070312 172.777344 457.625 C 173.324219 461.183594 174.011719 464.714844 174.84375 468.214844 C 175.671875 471.714844 176.644531 475.179688 177.753906 478.601562 C 178.863281 482.027344 180.105469 485.398438 181.488281 488.722656 C 182.867188 492.046875 184.378906 495.308594 186.023438 498.511719 C 187.667969 501.710938 189.4375 504.84375 191.332031 507.902344 C 193.226562 510.960938 195.242188 513.941406 197.378906 516.835938 C 199.511719 519.734375 201.761719 522.542969 204.121094 525.257812 C 206.480469 527.972656 208.949219 530.589844 211.519531 533.109375 C 214.089844 535.625 216.757812 538.039062 219.523438 540.339844 C 222.289062 542.644531 225.140625 544.832031 228.082031 546.90625 C 231.023438 548.980469 234.046875 550.929688 237.144531 552.761719 C 240.242188 554.59375 243.410156 556.296875 246.644531 557.871094 C 249.878906 559.445312 253.171875 560.890625 256.527344 562.199219 C 259.878906 563.511719 263.277344 564.683594 266.722656 565.722656 C 271.773438 567.101562 276.289062 569.492188 280.269531 572.894531 C 282.066406 574.652344 283.921875 576.351562 285.828125 577.996094 C 287.734375 579.636719 289.691406 581.21875 291.695312 582.738281 C 293.703125 584.257812 295.753906 585.710938 297.851562 587.101562 C 299.949219 588.492188 302.085938 589.816406 304.265625 591.070312 C 306.445312 592.328125 308.664062 593.515625 310.917969 594.632812 C 313.171875 595.75 315.460938 596.792969 317.78125 597.765625 C 320.101562 598.738281 322.449219 599.640625 324.824219 600.464844 C 327.203125 601.292969 329.601562 602.042969 332.027344 602.71875 C 334.449219 603.390625 336.894531 603.992188 339.355469 604.511719 C 341.816406 605.035156 344.292969 605.480469 346.78125 605.84375 C 349.269531 606.210938 351.769531 606.5 354.277344 606.710938 C 356.785156 606.917969 359.296875 607.050781 361.8125 607.101562 C 364.328125 607.15625 366.839844 607.128906 369.355469 607.023438 C 371.867188 606.914062 374.375 606.730469 376.878906 606.46875 C 379.382812 606.203125 381.875 605.863281 384.355469 605.441406 C 386.835938 605.023438 389.300781 604.527344 391.75 603.953125 C 393.785156 603.621094 395.835938 603.46875 397.898438 603.492188 C 398.921875 603.492188 399.945312 603.441406 401.144531 603.386719 L 401.144531 654.109375 C 401.144531 660.144531 401.144531 666.179688 401.054688 672.222656 C 400.941406 686.332031 400.828125 700.914062 401.332031 715.257812 C 401.632812 716.132812 401.804688 717.03125 401.847656 717.957031 C 401.886719 718.878906 401.796875 719.789062 401.574219 720.6875 C 401.351562 721.585938 401.007812 722.433594 400.539062 723.230469 C 400.070312 724.027344 399.496094 724.738281 398.820312 725.371094 C 398.144531 726.003906 397.394531 726.523438 396.566406 726.9375 C 395.742188 727.351562 394.871094 727.636719 393.960938 727.800781 C 393.050781 727.960938 392.136719 727.988281 391.21875 727.882812 C 390.300781 727.78125 389.414062 727.546875 388.5625 727.1875 C 379.066406 726.429688 369.617188 725.253906 360.222656 723.660156 C 350.832031 722.066406 341.527344 720.054688 332.308594 717.632812 C 323.09375 715.214844 314.003906 712.386719 305.039062 709.15625 C 296.074219 705.929688 287.269531 702.308594 278.628906 698.296875 C 269.984375 694.285156 261.539062 689.898438 253.285156 685.136719 C 245.03125 680.375 237.003906 675.253906 229.207031 669.777344 C 221.410156 664.304688 213.867188 658.492188 206.585938 652.347656 C 199.304688 646.203125 192.308594 639.746094 185.601562 632.980469 C 181.679688 629.125 177.863281 625.171875 174.152344 621.121094 C 170.4375 617.066406 166.832031 612.917969 163.335938 608.679688 C 159.835938 604.4375 156.453125 600.109375 153.179688 595.691406 C 149.910156 591.273438 146.753906 586.773438 143.71875 582.191406 C 140.679688 577.609375 137.765625 572.953125 134.96875 568.21875 C 132.175781 563.484375 129.503906 558.683594 126.960938 553.808594 C 124.417969 548.9375 122 544 119.714844 539.003906 C 117.425781 534.003906 115.269531 528.949219 113.246094 523.839844 C 111.222656 518.726562 109.332031 513.566406 107.578125 508.359375 C 105.824219 503.148438 104.203125 497.898438 102.722656 492.601562 C 101.242188 487.308594 99.898438 481.980469 98.695312 476.617188 C 97.492188 471.253906 96.429688 465.863281 95.503906 460.441406 C 94.582031 455.023438 93.800781 449.585938 93.160156 444.125 C 92.523438 438.664062 92.023438 433.191406 91.671875 427.707031 C 91.316406 422.222656 91.105469 416.730469 91.035156 411.234375 C 90.96875 405.738281 91.042969 400.242188 91.261719 394.75 C 91.421875 389.867188 91.695312 384.988281 92.078125 380.121094 C 92.460938 375.25 92.953125 370.390625 93.558594 365.542969 C 94.164062 360.695312 94.875 355.863281 95.699219 351.046875 C 96.523438 346.234375 97.457031 341.4375 98.5 336.667969 C 99.542969 331.894531 100.691406 327.148438 101.949219 322.425781 C 103.207031 317.707031 104.570312 313.015625 106.042969 308.359375 C 107.515625 303.699219 109.089844 299.078125 110.773438 294.488281 C 112.453125 289.902344 114.238281 285.355469 116.125 280.851562 C 118.015625 276.34375 120.003906 271.886719 122.09375 267.46875 C 124.1875 263.054688 126.375 258.6875 128.667969 254.375 C 130.957031 250.058594 133.34375 245.796875 135.828125 241.589844 C 138.308594 237.382812 140.886719 233.234375 143.558594 229.144531 C 146.230469 225.054688 148.996094 221.027344 151.851562 217.066406 C 154.707031 213.101562 157.652344 209.203125 160.683594 205.375 C 163.714844 201.542969 166.832031 197.785156 170.039062 194.097656 C 173.242188 190.410156 176.527344 186.796875 179.894531 183.257812 C 183.261719 179.71875 186.710938 176.257812 190.234375 172.875 C 193.761719 169.492188 197.359375 166.195312 201.035156 162.976562 C 204.710938 159.757812 208.457031 156.625 212.277344 153.578125 C 216.09375 150.527344 219.980469 147.570312 223.933594 144.699219 C 227.886719 141.828125 231.902344 139.046875 235.980469 136.359375 C 240.058594 133.671875 244.195312 131.078125 248.394531 128.578125 C 252.589844 126.078125 256.84375 123.671875 261.148438 121.367188 C 265.457031 119.058594 269.8125 116.851562 274.21875 114.742188 C 278.625 112.632812 283.078125 110.628906 287.578125 108.722656 C 292.074219 106.816406 296.613281 105.011719 301.195312 103.3125 C 305.773438 101.613281 310.390625 100.019531 315.042969 98.527344 C 319.695312 97.039062 324.378906 95.65625 329.09375 94.378906 C 333.8125 93.101562 338.554688 91.933594 343.320312 90.875 C 348.089844 89.8125 352.878906 88.859375 357.691406 88.019531 C 362.503906 87.175781 367.332031 86.441406 372.179688 85.820312 C 377.023438 85.195312 381.882812 84.683594 386.75 84.28125 C 395.335938 83.597656 403.890625 83.253906 412.417969 83.253906 C 421.476562 83.222656 430.523438 83.570312 439.554688 84.296875 C 448.585938 85.023438 457.570312 86.125 466.511719 87.609375 C 475.449219 89.089844 484.308594 90.945312 493.09375 93.171875 C 501.875 95.398438 510.550781 97.992188 519.113281 100.949219 C 527.679688 103.90625 536.105469 107.214844 544.390625 110.878906 C 552.679688 114.542969 560.796875 118.550781 568.746094 122.898438 C 576.695312 127.246094 584.449219 131.917969 592.003906 136.917969 C 599.5625 141.917969 606.894531 147.222656 614.007812 152.839844 C 621.933594 159.175781 629.550781 165.867188 636.851562 172.917969 C 644.15625 179.964844 651.113281 187.335938 657.726562 195.035156 C 664.34375 202.730469 670.585938 210.71875 676.453125 219 C 682.324219 227.277344 687.796875 235.8125 692.867188 244.601562 C 697.941406 253.394531 702.59375 262.398438 706.824219 271.625 C 711.058594 280.847656 714.851562 290.25 718.207031 299.828125 C 721.5625 309.40625 724.464844 319.121094 726.914062 328.96875 C 729.359375 338.816406 731.34375 348.761719 732.867188 358.792969 C 733.644531 364.089844 734.289062 369.40625 734.800781 374.734375 C 735.316406 380.0625 735.691406 385.402344 735.9375 390.75 C 736.179688 396.097656 736.289062 401.449219 736.261719 406.804688 C 736.238281 412.15625 736.078125 417.507812 735.78125 422.851562 C 735.488281 428.199219 735.058594 433.535156 734.496094 438.859375 C 733.933594 444.183594 733.238281 449.488281 732.410156 454.777344 C 731.578125 460.066406 730.617188 465.332031 729.523438 470.574219 C 728.429688 475.816406 727.203125 481.023438 725.847656 486.203125 C 724.492188 491.382812 723.003906 496.527344 721.390625 501.628906 C 719.777344 506.734375 718.035156 511.796875 716.164062 516.8125 C 714.296875 521.828125 712.300781 526.796875 710.183594 531.714844 C 708.0625 536.628906 705.824219 541.492188 703.460938 546.296875 C 701.097656 551.097656 698.613281 555.839844 696.011719 560.519531 C 693.410156 565.199219 690.691406 569.808594 687.859375 574.351562 C 685.027344 578.894531 682.082031 583.363281 679.023438 587.757812 C 675.964844 592.152344 672.796875 596.46875 669.523438 600.703125 C 666.320312 604.953125 663.011719 609.121094 659.597656 613.207031 C 656.183594 617.289062 652.671875 621.285156 649.058594 625.191406 C 645.445312 629.101562 641.734375 632.914062 637.929688 636.636719 C 634.125 640.355469 630.226562 643.980469 626.242188 647.503906 C 622.253906 651.03125 618.179688 654.453125 614.019531 657.773438 C 609.859375 661.09375 605.621094 664.308594 601.300781 667.414062 C 596.976562 670.523438 592.582031 673.519531 588.109375 676.40625 C 583.636719 679.289062 579.097656 682.0625 574.484375 684.722656 C 569.875 687.378906 565.199219 689.917969 560.460938 692.34375 C 555.722656 694.765625 550.925781 697.066406 546.070312 699.25 C 541.214844 701.429688 536.308594 703.488281 531.351562 705.425781 C 526.394531 707.359375 521.390625 709.171875 516.34375 710.855469 C 511.292969 712.539062 506.203125 714.09375 501.078125 715.519531 C 495.949219 716.949219 490.789062 718.246094 485.597656 719.417969 C 480.40625 720.585938 475.1875 721.621094 469.941406 722.527344 C 464.699219 723.433594 459.433594 724.207031 454.152344 724.851562 C 439.804688 726.4375 432.601562 727.238281 429.335938 724.316406 Z M 429.292969 724.316406 " fill-opacity="1" fill-rule="nonzero"/></g></svg>