<svg xmlns="http://www.w3.org/2000/svg" xmlns:xlink="http://www.w3.org/1999/xlink" width="1080" zoomAndPan="magnify" viewBox="0 0 810 809.999993" height="1080" preserveAspectRatio="xMidYMid meet" version="1.0"><defs><clipPath id="dfea619ecf"><path d="M 52 68.140625 L 653.296875 68.140625 L 653.296875 715.390625 L 52 715.390625 Z M 52 68.140625 " clip-rule="nonzero"/></clipPath><clipPath id="81f8d9d92e"><path d="M 608 360 L 779.746094 360 L 779.746094 537 L 608 537 Z M 608 360 " clip-rule="nonzero"/></clipPath><clipPath id="b19bcf1ce3"><path d="M 526.246094 481 L 655 481 L 655 566 L 526.246094 566 Z M 526.246094 481 " clip-rule="nonzero"/></clipPath><clipPath id="c217347fa8"><path d="M 526.246094 336.15625 L 744 336.15625 L 744 553 L 526.246094 553 Z M 526.246094 336.15625 " clip-rule="nonzero"/></clipPath><clipPath id="4f4856a317"><path d="M 690 499 L 779.746094 499 L 779.746094 588.90625 L 690 588.90625 Z M 690 499 " clip-rule="nonzero"/></clipPath></defs><rect x="-81" width="972" fill="#ffffff" y="-80.999999" height="971.999992" fill-opacity="1"/><rect x="-81" width="972" fill="#ffffff" y="-80.999999" height="971.999992" fill-opacity="1"/><path fill="#f30f0d" d="M 289.230469 529.5625 C 289.230469 535.261719 293.84375 539.871094 299.542969 539.871094 L 485.425781 539.871094 C 491.125 539.871094 495.738281 535.261719 495.738281 529.5625 C 495.738281 523.863281 491.125 519.25 485.425781 519.25 L 299.542969 519.25 C 293.84375 519.25 289.230469 523.863281 289.230469 529.5625 Z M 289.230469 529.5625 " fill-opacity="1" fill-rule="nonzero"/><path fill="#f30f0d" d="M 449.367188 475.105469 C 455.066406 475.105469 459.675781 470.492188 459.675781 464.792969 C 459.675781 459.09375 455.066406 454.484375 449.367188 454.484375 L 335.589844 454.484375 C 329.890625 454.484375 325.28125 459.09375 325.28125 464.792969 C 325.28125 470.492188 329.890625 475.105469 335.589844 475.105469 Z M 449.367188 475.105469 " fill-opacity="1" fill-rule="nonzero"/><g clip-path="url(#dfea619ecf)"><path fill="#f30f0d" d="M 659.125 252.425781 L 588.394531 252.425781 C 582.695312 252.425781 578.085938 257.039062 578.085938 262.738281 C 578.085938 268.4375 582.695312 273.050781 588.394531 273.050781 L 659.125 273.050781 C 688.355469 273.050781 712.128906 296.835938 712.128906 326.054688 L 712.128906 555.179688 C 712.128906 584.277344 688.445312 607.960938 659.335938 607.960938 L 338.449219 607.960938 C 331.171875 607.960938 324.332031 610.800781 319.21875 615.917969 L 242.347656 692.585938 L 242.347656 635.390625 C 242.347656 620.265625 230.042969 607.960938 214.917969 607.960938 L 125.832031 607.960938 C 96.609375 607.960938 72.835938 584.179688 72.835938 554.957031 L 72.835938 326.257812 C 72.835938 296.914062 96.703125 273.050781 126.042969 273.050781 L 238.347656 273.050781 C 244.191406 273.050781 249.746094 275.183594 254.007812 279.070312 C 280.882812 303.601562 348.832031 368.367188 375.265625 400.570312 C 383.179688 411.507812 401.585938 411.484375 409.480469 400.589844 C 451.742188 342.5 547.597656 286.175781 572.09375 219.480469 C 623.128906 79.789062 447.5625 16.933594 392.414062 115.785156 C 338.742188 18.117188 164.75 77.882812 211.261719 215.492188 C 213.09375 220.890625 218.964844 223.769531 224.332031 221.957031 C 229.730469 220.144531 232.621094 214.285156 230.796875 208.886719 C 191.164062 91.605469 342.339844 46.332031 378.738281 134.957031 C 384.585938 148.082031 401.8125 145.820312 406.136719 134.695312 C 442.796875 45.835938 596.667969 92.140625 552.730469 212.390625 C 532.40625 267.722656 437.332031 330.523438 391.585938 387.984375 C 364.066406 354.433594 295.132812 288.679688 267.902344 263.847656 C 259.835938 256.476562 249.34375 252.425781 238.347656 252.425781 L 126.042969 252.425781 C 85.332031 252.425781 52.214844 285.554688 52.214844 326.257812 L 52.214844 554.957031 C 52.214844 595.558594 85.242188 628.585938 125.832031 628.585938 L 214.917969 628.585938 C 218.671875 628.585938 221.722656 631.644531 221.722656 635.390625 L 221.722656 697.621094 C 221.722656 714.050781 241.640625 722.417969 253.34375 710.753906 C 337.214844 628.066406 333.273438 628.585938 338.449219 628.585938 L 659.335938 628.585938 C 699.816406 628.585938 732.753906 595.65625 732.753906 555.179688 L 732.753906 326.054688 C 732.753906 285.457031 699.726562 252.425781 659.125 252.425781 Z M 659.125 252.425781 " fill-opacity="1" fill-rule="nonzero"/></g><g clip-path="url(#81f8d9d92e)"><path fill="#f32927" d="M 649.019531 536.535156 C 647.828125 536.535156 646.789062 536.089844 645.898438 535.199219 C 644.113281 533.414062 644.113281 530.589844 645.898438 528.804688 L 763.765625 411.085938 C 768.375 406.476562 771.046875 400.234375 771.046875 393.546875 C 771.046875 387.007812 768.375 380.765625 763.765625 376.15625 C 754.105469 366.644531 738.496094 366.644531 728.984375 376.15625 L 616.019531 489.121094 C 614.386719 490.902344 611.5625 490.902344 609.777344 489.121094 C 607.996094 487.335938 607.996094 484.511719 609.777344 482.730469 L 722.59375 369.914062 C 735.671875 356.832031 756.929688 356.832031 770.15625 369.914062 C 776.398438 376.15625 779.96875 384.628906 779.96875 393.546875 C 779.96875 402.613281 776.398438 411.085938 770.15625 417.328125 L 652.140625 535.199219 C 651.246094 536.089844 650.207031 536.535156 649.019531 536.535156 Z M 649.019531 536.535156 " fill-opacity="1" fill-rule="evenodd"/></g><g clip-path="url(#b19bcf1ce3)"><path fill="#f32927" d="M 594.46875 565.074219 C 568.605469 565.074219 544.230469 554.667969 527.433594 536.832031 C 525.945312 535.199219 525.796875 532.523438 527.285156 530.886719 C 528.769531 529.101562 531.296875 528.804688 533.230469 530.144531 C 533.230469 530.144531 536.945312 532.375 543.1875 532.375 C 553 532.375 568.605469 526.578125 586.738281 498.929688 C 587.183594 498.335938 598.183594 481.390625 615.277344 481.390625 C 625.683594 481.390625 635.640625 487.484375 645.003906 499.671875 C 657.640625 516.46875 655.410156 529.847656 651.394531 538.171875 C 647.382812 546.34375 639.652344 553.183594 628.953125 557.9375 C 618.992188 562.546875 606.953125 565.074219 594.46875 565.074219 Z M 546.011719 541.144531 C 559.6875 550.804688 576.632812 556.15625 594.46875 556.15625 C 617.210938 556.15625 636.828125 547.238281 643.371094 534.15625 C 647.679688 525.535156 645.75 515.578125 637.871094 505.171875 C 630.289062 495.214844 622.710938 490.308594 615.277344 490.308594 C 603.089844 490.308594 594.320312 503.6875 594.171875 503.835938 C 575.441406 532.375 558.199219 540.25 546.011719 541.144531 Z M 546.011719 541.144531 " fill-opacity="1" fill-rule="evenodd"/></g><path fill="#f32927" d="M 764.65625 420.894531 C 764.359375 420.894531 763.914062 420.894531 763.617188 420.746094 C 752.765625 418.519531 742.808594 413.019531 734.78125 405.140625 C 726.902344 397.261719 721.402344 387.304688 719.027344 376.15625 C 718.578125 373.777344 720.066406 371.398438 722.445312 370.953125 C 724.972656 370.359375 727.347656 371.996094 727.796875 374.371094 C 729.726562 383.738281 734.335938 392.210938 741.023438 398.898438 C 747.863281 405.585938 756.183594 410.046875 765.550781 412.125 C 767.925781 412.574219 769.414062 414.949219 768.96875 417.328125 C 768.523438 419.410156 766.589844 420.894531 764.65625 420.894531 Z M 764.65625 420.894531 " fill-opacity="1" fill-rule="evenodd"/><path fill="#f32927" d="M 639.652344 504.726562 C 638.464844 504.726562 637.425781 504.28125 636.53125 503.390625 C 634.75 501.605469 634.75 498.78125 636.53125 496.996094 L 734.632812 398.898438 C 736.417969 397.113281 739.242188 397.113281 741.023438 398.898438 C 742.808594 400.53125 742.808594 403.355469 741.023438 405.140625 L 642.773438 503.390625 C 641.882812 504.28125 640.84375 504.726562 639.652344 504.726562 Z M 639.652344 504.726562 " fill-opacity="1" fill-rule="evenodd"/><g clip-path="url(#c217347fa8)"><path fill="#f32927" d="M 694.796875 552.738281 C 693.609375 552.738281 692.421875 552.140625 691.675781 551.398438 L 660.761719 520.484375 C 658.976562 518.699219 658.976562 515.875 660.761719 514.089844 C 662.394531 512.457031 665.21875 512.457031 667.003906 514.089844 L 694.796875 541.886719 L 732.402344 504.28125 L 704.757812 476.484375 C 702.972656 474.703125 702.972656 471.878906 704.757812 470.09375 C 706.390625 468.460938 709.214844 468.460938 711 470.09375 L 741.914062 501.011719 C 743.699219 502.792969 743.699219 505.617188 741.914062 507.402344 L 697.917969 551.398438 C 697.027344 552.140625 695.988281 552.738281 694.796875 552.738281 Z M 622.710938 480.648438 C 621.519531 480.648438 620.480469 480.203125 619.589844 479.308594 L 537.09375 396.816406 C 523.273438 382.84375 523.273438 360.402344 537.09375 346.578125 C 550.917969 332.753906 573.363281 332.753906 587.332031 346.578125 L 669.828125 429.070312 C 671.609375 430.707031 671.609375 433.53125 669.828125 435.3125 C 668.042969 437.097656 665.21875 437.097656 663.585938 435.3125 L 581.089844 352.820312 C 570.6875 342.566406 553.742188 342.566406 543.335938 352.820312 C 533.082031 363.226562 533.082031 380.019531 543.484375 390.574219 L 625.832031 472.917969 C 627.613281 474.703125 627.613281 477.527344 625.832031 479.308594 C 624.9375 480.203125 623.898438 480.648438 622.710938 480.648438 Z M 622.710938 480.648438 " fill-opacity="1" fill-rule="evenodd"/></g><path fill="#f32927" d="M 551.511719 409.449219 C 550.472656 409.449219 549.28125 409.003906 548.390625 408.113281 C 546.609375 406.328125 546.609375 403.503906 548.390625 401.871094 L 592.386719 357.875 C 594.171875 356.089844 596.996094 356.089844 598.628906 357.875 C 600.414062 359.65625 600.414062 362.480469 598.628906 364.117188 L 554.632812 408.113281 C 553.890625 409.003906 552.703125 409.449219 551.511719 409.449219 Z M 551.511719 409.449219 " fill-opacity="1" fill-rule="evenodd"/><g clip-path="url(#4f4856a317)"><path fill="#f32927" d="M 775.0625 588.855469 C 774.320312 588.855469 773.722656 588.855469 773.128906 588.558594 L 692.867188 552.289062 C 691.527344 551.695312 690.636719 550.507812 690.339844 549.019531 C 690.191406 547.535156 690.636719 546.046875 691.675781 545.007812 L 735.523438 501.011719 C 736.566406 499.96875 738.050781 499.523438 739.539062 499.820312 C 741.023438 500.121094 742.214844 501.011719 742.808594 502.347656 L 778.925781 582.316406 C 779.222656 582.910156 779.519531 583.652344 779.519531 584.394531 C 779.519531 586.921875 777.441406 588.855469 775.0625 588.855469 Z M 702.527344 546.792969 L 766.144531 575.476562 L 737.308594 512.011719 Z M 702.527344 546.792969 " fill-opacity="1" fill-rule="evenodd"/></g></svg>